<svg width="444" height="160" viewBox="0 0 444 160" fill="none" xmlns="http://www.w3.org/2000/svg">
<path d="M180.021 0.5H186.601V36.46H180.021V0.5Z" fill="#3C3C3C"/>
<path d="M229.751 13.43C231.141 15.11 231.84 17.69 231.84 21.16V36.46H225.46V21.42C225.46 19.52 225.14 18.13 224.49 17.26C223.84 16.39 222.811 15.96 221.381 15.96C219.681 15.96 218.35 16.54 217.4 17.69C216.45 18.85 215.971 20.46 215.971 22.53V36.45H209.59V21.41C209.59 19.51 209.28 18.12 208.65 17.25C208.02 16.38 206.97 15.95 205.51 15.95C203.84 15.95 202.531 16.53 201.581 17.68C200.631 18.84 200.15 20.45 200.15 22.52V36.44H193.771V11.5H199.991V15.02C200.741 13.66 201.771 12.63 203.101 11.93C204.431 11.23 205.941 10.88 207.641 10.88C211.411 10.88 213.911 12.44 215.141 15.57C215.921 14.11 217.04 12.96 218.51 12.13C219.97 11.3 221.601 10.88 223.411 10.88C226.231 10.88 228.341 11.72 229.731 13.4L229.751 13.43Z" fill="#3C3C3C"/>
<path d="M258.38 12.54C260.06 13.63 261.37 15.17 262.31 17.16C263.24 19.15 263.71 21.44 263.71 24.02C263.71 26.6 263.24 28.86 262.31 30.8C261.37 32.74 260.07 34.23 258.41 35.29C256.74 36.34 254.82 36.87 252.65 36.87C250.88 36.87 249.3 36.5 247.91 35.75C246.52 35 245.44 33.97 244.7 32.64V45.64H238.32V11.52H244.59V15.29C245.34 13.9 246.42 12.82 247.83 12.05C249.24 11.29 250.85 10.9 252.65 10.9C254.79 10.9 256.7 11.44 258.39 12.53L258.38 12.54ZM255.66 29.85C256.78 28.47 257.34 26.53 257.34 24.01C257.34 21.49 256.78 19.42 255.66 17.99C254.54 16.56 252.97 15.85 250.97 15.85C248.97 15.85 247.36 16.55 246.25 17.94C245.14 19.33 244.59 21.32 244.59 23.91C244.59 26.5 245.14 28.43 246.25 29.83C247.35 31.22 248.93 31.92 250.97 31.92C253.01 31.92 254.54 31.23 255.66 29.85Z" fill="#3C3C3C"/>
<path d="M287.48 13.45C289.18 15.15 290.03 17.77 290.03 21.3V36.45H283.96V32.63C283.38 33.96 282.47 34.99 281.23 35.74C279.99 36.49 278.55 36.86 276.92 36.86C275.29 36.86 273.74 36.52 272.38 35.84C271.02 35.16 269.95 34.23 269.17 33.04C268.39 31.85 268 30.52 268 29.06C268 27.22 268.47 25.78 269.4 24.73C270.33 23.68 271.86 22.91 273.96 22.44C276.07 21.96 278.97 21.73 282.68 21.73H283.95V20.56C283.95 18.86 283.58 17.64 282.85 16.89C282.12 16.14 280.9 15.77 279.2 15.77C277.87 15.77 276.49 16 275.04 16.46C273.59 16.92 272.18 17.56 270.78 18.37L269 13.98C270.39 13.1 272.08 12.37 274.05 11.79C276.02 11.21 277.89 10.92 279.66 10.92C283.16 10.92 285.76 11.77 287.46 13.47L287.48 13.45ZM282.35 30.57C283.42 29.43 283.96 27.96 283.96 26.16V25.09H283.04C280.76 25.09 278.99 25.19 277.74 25.4C276.48 25.6 275.58 25.96 275.04 26.47C274.5 26.98 274.22 27.68 274.22 28.56C274.22 29.65 274.59 30.54 275.34 31.24C276.09 31.94 277.04 32.29 278.2 32.29C279.9 32.29 281.29 31.72 282.36 30.58L282.35 30.57Z" fill="#3C3C3C"/>
<path d="M301.07 35.28C299.15 34.23 297.68 32.73 296.66 30.79C295.64 28.85 295.13 26.59 295.13 24.01C295.13 21.43 295.67 19.14 296.74 17.15C297.81 15.16 299.33 13.62 301.3 12.53C303.27 11.44 305.55 10.9 308.13 10.9C309.9 10.9 311.62 11.18 313.31 11.74C315 12.3 316.34 13.06 317.36 14.01L315.52 18.5C314.47 17.65 313.35 17 312.18 16.56C311.01 16.12 309.84 15.9 308.69 15.9C306.48 15.9 304.76 16.59 303.54 17.97C302.32 19.35 301.7 21.33 301.7 23.91C301.7 26.49 302.31 28.42 303.54 29.8C304.77 31.18 306.48 31.87 308.69 31.87C309.85 31.87 311.01 31.65 312.18 31.21C313.35 30.77 314.47 30.12 315.52 29.27L317.36 33.71C316.27 34.7 314.88 35.47 313.18 36.03C311.48 36.59 309.71 36.87 307.88 36.87C305.26 36.87 302.99 36.34 301.07 35.29V35.28Z" fill="#3C3C3C"/>
<path d="M336.64 31.92L336.33 36.66C335.31 36.76 334.37 36.81 333.52 36.81C330.02 36.81 327.43 36 325.77 34.39C324.1 32.78 323.27 30.37 323.27 27.17V16.31H318.48V11.52H323.27V4.07001H329.65V11.52H336.23V16.31H329.65V27.07C329.65 30.4 331.2 32.07 334.29 32.07C335.04 32.07 335.82 32.02 336.64 31.92Z" fill="#3C3C3C"/>
<path d="M180.021 61.7H203.581V66.95H186.501V76.74H202.561V81.99H186.501V97.65H180.021V61.69V61.7Z" fill="#3C3C3C"/>
<path d="M224.24 77.41L220.52 77.77C216.3 78.21 214.2 80.35 214.2 84.2V97.66H207.82V72.72H213.89V77.11C215.18 74.12 217.85 72.49 221.9 72.21L223.84 72.06L224.25 77.41H224.24Z" fill="#3C3C3C"/>
<path d="M245.76 74.65C247.46 76.35 248.31 78.97 248.31 82.5V97.65H242.24V93.83C241.66 95.16 240.75 96.19 239.51 96.94C238.27 97.69 236.83 98.06 235.2 98.06C233.57 98.06 232.02 97.72 230.66 97.04C229.3 96.36 228.23 95.43 227.45 94.24C226.67 93.05 226.28 91.72 226.28 90.26C226.28 88.42 226.75 86.98 227.68 85.93C228.61 84.88 230.14 84.11 232.24 83.64C234.35 83.16 237.25 82.93 240.96 82.93H242.23V81.76C242.23 80.06 241.86 78.84 241.13 78.09C240.4 77.34 239.18 76.97 237.48 76.97C236.15 76.97 234.77 77.2 233.32 77.66C231.87 78.12 230.46 78.76 229.06 79.57L227.28 75.18C228.67 74.3 230.36 73.57 232.33 72.99C234.3 72.41 236.17 72.12 237.94 72.12C241.44 72.12 244.04 72.97 245.74 74.67L245.76 74.65ZM240.64 91.77C241.71 90.63 242.25 89.16 242.25 87.36V86.29H241.33C239.05 86.29 237.28 86.39 236.03 86.6C234.77 86.8 233.87 87.16 233.33 87.67C232.79 88.18 232.51 88.88 232.51 89.76C232.51 90.85 232.88 91.74 233.63 92.44C234.38 93.14 235.33 93.49 236.49 93.49C238.19 93.49 239.58 92.92 240.65 91.78L240.64 91.77Z" fill="#3C3C3C"/>
<path d="M290.74 74.63C292.13 76.31 292.83 78.89 292.83 82.36V97.66H286.45V82.62C286.45 80.72 286.13 79.33 285.48 78.46C284.83 77.59 283.8 77.16 282.37 77.16C280.67 77.16 279.34 77.74 278.39 78.89C277.44 80.05 276.96 81.66 276.96 83.73V97.65H270.58V82.61C270.58 80.71 270.27 79.32 269.64 78.45C269.01 77.58 267.96 77.15 266.5 77.15C264.83 77.15 263.52 77.73 262.57 78.88C261.62 80.04 261.14 81.65 261.14 83.72V97.64H254.76V72.7H260.98V76.22C261.73 74.86 262.76 73.83 264.09 73.13C265.42 72.43 266.93 72.08 268.63 72.08C272.4 72.08 274.9 73.64 276.13 76.77C276.91 75.31 278.03 74.16 279.5 73.33C280.96 72.5 282.59 72.08 284.4 72.08C287.22 72.08 289.33 72.92 290.72 74.6L290.74 74.63Z" fill="#3C3C3C"/>
<path d="M321.19 86.33H304.21C304.41 88.64 305.11 90.36 306.3 91.48C307.49 92.6 309.19 93.16 311.4 93.16C314.15 93.16 316.67 92.28 318.95 90.51L320.79 94.9C319.63 95.85 318.18 96.62 316.43 97.19C314.68 97.77 312.92 98.06 311.15 98.06C307.07 98.06 303.85 96.9 301.49 94.59C299.13 92.28 297.95 89.12 297.95 85.1C297.95 82.55 298.46 80.29 299.48 78.32C300.5 76.35 301.94 74.82 303.79 73.73C305.64 72.64 307.74 72.1 310.09 72.1C313.52 72.1 316.24 73.21 318.22 75.41C320.21 77.62 321.2 80.66 321.2 84.54V86.32L321.19 86.33ZM306.12 78.22C305.08 79.31 304.44 80.87 304.21 82.91H315.74C315.67 80.84 315.16 79.26 314.21 78.19C313.26 77.12 311.93 76.58 310.23 76.58C308.53 76.58 307.16 77.12 306.12 78.21V78.22Z" fill="#3C3C3C"/>
<path d="M365.87 72.72L356.08 97.66H350.52L344.4 81.6L338.43 97.66H332.92L323.08 72.72H329.61L335.99 90.06L342.37 72.72H346.96L353.34 90.16L359.66 72.72H365.88H365.87Z" fill="#3C3C3C"/>
<path d="M373.9 96.48C371.98 95.43 370.49 93.91 369.44 91.94C368.39 89.97 367.86 87.67 367.86 85.05C367.86 82.43 368.39 80.15 369.44 78.19C370.49 76.24 371.98 74.73 373.9 73.68C375.82 72.63 378.06 72.1 380.61 72.1C383.16 72.1 385.4 72.63 387.32 73.68C389.24 74.73 390.72 76.24 391.76 78.19C392.8 80.15 393.32 82.43 393.32 85.05C393.32 87.67 392.8 89.96 391.76 91.94C390.72 93.91 389.24 95.43 387.32 96.48C385.4 97.53 383.16 98.06 380.61 98.06C378.06 98.06 375.82 97.53 373.9 96.48ZM385.3 91.08C386.39 89.72 386.93 87.71 386.93 85.06C386.93 82.41 386.39 80.44 385.3 79.07C384.21 77.69 382.65 77 380.61 77C378.57 77 377 77.69 375.89 79.07C374.78 80.45 374.23 82.44 374.23 85.06C374.23 87.68 374.77 89.72 375.86 91.08C376.95 92.44 378.51 93.12 380.55 93.12C382.59 93.12 384.2 92.44 385.29 91.08H385.3Z" fill="#3C3C3C"/>
<path d="M414.981 77.41L411.261 77.77C407.041 78.21 404.941 80.35 404.941 84.2V97.66H398.561V72.72H404.631V77.11C405.921 74.12 408.591 72.49 412.641 72.21L414.581 72.06L414.991 77.41H414.981Z" fill="#3C3C3C"/>
<path d="M435.17 97.66L424.46 86.29V97.66H418.08V61.7H424.46V83.63L434.51 72.77H442.26L431.04 84.7L443.08 97.65H435.17V97.66Z" fill="#3C3C3C"/>
<path d="M213.07 122.9L197.06 158.86H191.71L175.7 122.9H182.48L194.41 150.7L206.4 122.9H213.08H213.07Z" fill="#3C3C3C"/>
<path d="M222.561 122.34V128.61H215.521V122.34H222.561ZM215.881 133.92H222.261V158.86H215.881V133.92Z" fill="#3C3C3C"/>
<path d="M231.92 158.45C230.07 157.91 228.49 157.12 227.2 156.1L228.98 151.66C231.63 153.6 234.67 154.57 238.11 154.57C239.57 154.57 240.69 154.33 241.45 153.86C242.22 153.38 242.6 152.7 242.6 151.82C242.6 151.07 242.34 150.49 241.81 150.09C241.28 149.68 240.34 149.31 238.98 148.97L234.9 148.05C232.59 147.54 230.87 146.71 229.75 145.55C228.63 144.39 228.07 142.9 228.07 141.06C228.07 139.53 228.5 138.18 229.37 137.01C230.24 135.84 231.44 134.93 232.99 134.28C234.54 133.63 236.33 133.31 238.37 133.31C240.14 133.31 241.85 133.58 243.5 134.13C245.15 134.67 246.6 135.44 247.86 136.43L246.08 140.76C243.5 138.89 240.91 137.96 238.33 137.96C236.94 137.96 235.85 138.21 235.07 138.72C234.29 139.23 233.9 139.94 233.9 140.86C233.9 141.54 234.15 142.1 234.64 142.54C235.13 142.98 235.92 143.32 237.01 143.56L241.24 144.53C243.72 145.07 245.54 145.93 246.7 147.11C247.86 148.28 248.43 149.82 248.43 151.73C248.43 154.04 247.49 155.88 245.63 157.24C243.76 158.6 241.23 159.28 238.03 159.28C235.82 159.28 233.79 159.01 231.94 158.46L231.92 158.45Z" fill="#3C3C3C"/>
<path d="M276.46 133.92V158.86H270.24V155.04C269.46 156.4 268.4 157.45 267.08 158.18C265.75 158.91 264.26 159.28 262.59 159.28C256.47 159.28 253.41 155.85 253.41 148.98V133.94H259.79V149.04C259.79 150.81 260.15 152.12 260.86 152.97C261.57 153.82 262.7 154.24 264.23 154.24C266 154.24 267.42 153.65 268.49 152.48C269.56 151.31 270.1 149.75 270.1 147.81V133.94H276.48L276.46 133.92Z" fill="#3C3C3C"/>
<path d="M301.61 135.85C303.31 137.55 304.16 140.17 304.16 143.7V158.85H298.09V155.03C297.51 156.36 296.6 157.39 295.36 158.14C294.12 158.89 292.68 159.26 291.05 159.26C289.42 159.26 287.87 158.92 286.51 158.24C285.15 157.56 284.08 156.63 283.3 155.44C282.52 154.25 282.13 152.92 282.13 151.46C282.13 149.62 282.6 148.18 283.53 147.13C284.46 146.08 285.99 145.31 288.09 144.84C290.2 144.36 293.1 144.13 296.81 144.13H298.08V142.96C298.08 141.26 297.71 140.04 296.98 139.29C296.25 138.54 295.03 138.17 293.33 138.17C292 138.17 290.62 138.4 289.17 138.86C287.72 139.32 286.31 139.96 284.91 140.77L283.13 136.38C284.52 135.5 286.21 134.77 288.18 134.19C290.15 133.61 292.02 133.32 293.79 133.32C297.29 133.32 299.89 134.17 301.59 135.87L301.61 135.85ZM296.48 152.97C297.55 151.83 298.09 150.36 298.09 148.56V147.49H297.17C294.89 147.49 293.12 147.59 291.87 147.8C290.61 148 289.71 148.36 289.17 148.87C288.63 149.38 288.35 150.08 288.35 150.96C288.35 152.05 288.72 152.94 289.47 153.64C290.22 154.34 291.17 154.69 292.33 154.69C294.03 154.69 295.42 154.12 296.49 152.98L296.48 152.97Z" fill="#3C3C3C"/>
<path d="M310.63 122.9H317.01V158.86H310.63V122.9Z" fill="#3C3C3C"/>
<path d="M330.27 122.34V128.61H323.23V122.34H330.27ZM323.59 133.92H329.97V158.86H323.59V133.92Z" fill="#3C3C3C"/>
<path d="M357.35 154.06V158.85H335.62V154.41L349.19 138.7H335.88V133.91H356.84V138.24L343.17 154.05H357.35V154.06Z" fill="#3C3C3C"/>
<path d="M383.77 147.53H366.79C366.99 149.84 367.69 151.56 368.88 152.68C370.07 153.8 371.77 154.36 373.98 154.36C376.73 154.36 379.25 153.48 381.53 151.71L383.37 156.1C382.21 157.05 380.76 157.82 379.01 158.39C377.26 158.97 375.5 159.26 373.73 159.26C369.65 159.26 366.43 158.1 364.07 155.79C361.71 153.48 360.53 150.32 360.53 146.3C360.53 143.75 361.04 141.49 362.06 139.52C363.08 137.55 364.52 136.02 366.37 134.93C368.22 133.84 370.32 133.3 372.67 133.3C376.1 133.3 378.82 134.41 380.8 136.61C382.79 138.82 383.78 141.86 383.78 145.74V147.52L383.77 147.53ZM368.7 139.42C367.66 140.51 367.02 142.07 366.79 144.11H378.32C378.25 142.04 377.74 140.46 376.79 139.39C375.84 138.32 374.51 137.78 372.81 137.78C371.11 137.78 369.74 138.32 368.7 139.41V139.42Z" fill="#3C3C3C"/>
<path d="M405.39 138.61L401.67 138.97C397.45 139.41 395.35 141.55 395.35 145.4V158.86H388.97V133.92H395.04V138.31C396.33 135.32 399 133.69 403.05 133.41L404.99 133.26L405.4 138.61H405.39Z" fill="#3C3C3C"/>
<path d="M38.6503 112.62C38.6503 112.62 38.6903 112.66 38.7103 112.68C30.5103 104.18 25.4603 92.62 25.4603 79.88C25.4603 67.14 30.2203 56.23 38.0103 47.81C38.4203 47.37 38.5503 47.22 38.5503 47.22L20.6103 29.28C-6.85969 57.5 -6.85969 102.48 20.6103 130.7L38.6503 112.62Z" fill="#3C3C3C"/>
<path fill-rule="evenodd" clip-rule="evenodd" d="M85.8104 91.82L72.7304 109.89L59.6504 91.82H85.8104Z" fill="#ACCA53"/>
<path d="M43.4406 82.37C39.8706 78.68 40.9606 72.67 45.6006 70.47C48.4106 69.14 51.8506 69.76 54.0106 72C57.5806 75.69 56.4906 81.7 51.8506 83.9C49.0406 85.23 45.6006 84.61 43.4406 82.37Z" fill="#3C3C3C"/>
<path d="M63.8805 70.71C63.9005 70.6 63.8805 70.5 63.8505 70.4C63.4805 69.43 63.0305 68.48 62.4805 67.59C60.2005 63.84 56.6005 61.22 52.3605 60.21C52.0905 60.15 51.8105 60.09 51.5405 60.04C43.1405 58.46 34.8505 63.41 32.2505 71.54C30.6505 76.55 31.4705 82.13 34.4705 86.44C34.5805 86.59 34.6805 86.74 34.7905 86.89C34.9905 87.15 35.2705 87.32 35.6005 87.37C35.9305 87.42 36.2505 87.34 36.5105 87.14C36.7805 86.94 36.9505 86.65 37.0005 86.32C37.0505 86 36.9705 85.68 36.7705 85.42C33.9805 81.66 33.1705 76.75 34.6005 72.28C36.8305 65.32 43.9205 61.09 51.1105 62.44C51.3505 62.48 51.5905 62.53 51.8205 62.59C55.4205 63.45 58.4705 65.68 60.4105 68.86C60.8305 69.54 61.1905 70.26 61.5005 71C61.9805 72.16 63.6905 71.94 63.9105 70.71H63.8805Z" fill="#3C3C3C"/>
<path d="M93.6201 83.89C88.9801 81.69 87.8901 75.68 91.4601 71.99C93.6201 69.76 97.0601 69.13 99.8701 70.46C104.51 72.66 105.6 78.67 102.03 82.36C99.8701 84.59 96.4301 85.22 93.6201 83.89Z" fill="#3C3C3C"/>
<path d="M81.5905 70.71C81.5705 70.6 81.5906 70.5 81.6206 70.4C81.9906 69.43 82.4405 68.48 82.9905 67.59C85.2705 63.84 88.8706 61.22 93.1105 60.21C93.3805 60.15 93.6605 60.09 93.9305 60.04C102.331 58.46 110.621 63.41 113.221 71.54C114.821 76.55 114.001 82.13 111.001 86.44C110.891 86.59 110.791 86.74 110.681 86.89C110.481 87.15 110.201 87.32 109.871 87.37C109.541 87.42 109.221 87.34 108.961 87.14C108.691 86.94 108.521 86.65 108.471 86.32C108.421 86 108.501 85.68 108.701 85.42C111.491 81.66 112.301 76.75 110.871 72.28C108.641 65.32 101.551 61.09 94.3605 62.44C94.1205 62.48 93.8805 62.53 93.6505 62.59C90.0505 63.45 87.0005 65.68 85.0605 68.86C84.6405 69.54 84.2806 70.26 83.9706 71C83.4906 72.16 81.7805 71.94 81.5605 70.71H81.5905Z" fill="#3C3C3C"/>
<path d="M124.751 29.17L106.821 47.14C106.821 47.14 106.8 47.12 106.79 47.11C114.97 55.61 120.01 67.15 120.01 79.88C120.01 105.99 98.8405 127.16 72.7305 127.16C60.0305 127.16 48.5105 122.14 40.0205 114C40.0305 114.01 40.0505 114.03 40.0605 114.04L22.0205 132.12C50.4805 159.82 96.0005 159.6 124.171 131.43C152.381 103.22 152.561 57.63 124.751 29.17Z" fill="#006D68"/>
<path d="M105.4 45.73L123.45 27.64C122.96 27.16 122.32 26.55 121.9 26.17C108.95 14.29 91.6904 7.04001 72.7304 7.04001C53.7704 7.04001 36.5904 14.26 23.6504 26.09C23.1704 26.53 22.4404 27.23 21.9004 27.76L39.9504 45.81C39.9504 45.81 40.0304 45.74 40.4404 45.36C48.8904 37.46 60.2404 32.62 72.7304 32.62C85.2204 32.62 96.9304 37.63 105.42 45.76C105.42 45.76 105.41 45.75 105.4 45.74V45.73Z" fill="#ACCA53"/>
</svg>
