<svg width="181" height="182" viewBox="0 0 181 182" fill="none" xmlns="http://www.w3.org/2000/svg">
<path d="M48.7002 131.4C48.7002 131.4 48.7502 131.45 48.7702 131.47C38.6302 120.95 32.3802 106.65 32.3802 90.88C32.3802 75.11 38.2702 61.62 47.9102 51.19C48.4102 50.64 48.5802 50.46 48.5802 50.46L26.3802 28.26C-7.60981 63.18 -7.60981 118.85 26.3802 153.77L48.7002 131.4Z" fill="#3C3C3C"/>
<path fill-rule="evenodd" clip-rule="evenodd" d="M107.06 105.66L90.8804 128.02L74.6904 105.66H107.06Z" fill="#ACCA53"/>
<path d="M54.6296 93.96C50.2096 89.39 51.5596 81.96 57.2996 79.24C60.7696 77.59 65.0296 78.36 67.7096 81.13C72.1196 85.7 70.7796 93.13 65.0396 95.85C61.5696 97.5 57.3096 96.73 54.6296 93.96Z" fill="#3C3C3C"/>
<path d="M79.9198 79.54C79.9398 79.41 79.9298 79.27 79.8898 79.15C79.4298 77.94 78.8698 76.78 78.1898 75.67C75.3698 71.03 70.9198 67.79 65.6698 66.54C65.3298 66.46 64.9898 66.39 64.6498 66.32C54.2598 64.37 43.9998 70.49 40.7698 80.55C38.7798 86.75 39.8098 93.65 43.5098 98.99C43.6398 99.18 43.7698 99.36 43.9098 99.55C44.1498 99.88 44.5098 100.09 44.9098 100.15C45.3098 100.21 45.7098 100.11 46.0398 99.87C46.3698 99.62 46.5798 99.27 46.6398 98.86C46.6998 98.46 46.5998 98.07 46.3498 97.75C42.8998 93.1 41.8898 87.02 43.6598 81.49C46.4198 72.88 55.1998 67.64 64.0798 69.31C64.3798 69.36 64.6698 69.43 64.9598 69.5C69.4098 70.56 73.1898 73.32 75.5898 77.26C76.0998 78.1 76.5498 78.99 76.9298 79.91C77.5198 81.34 79.6398 81.08 79.9098 79.55L79.9198 79.54Z" fill="#3C3C3C"/>
<path d="M116.721 95.85C110.981 93.13 109.631 85.69 114.051 81.13C116.721 78.36 120.981 77.59 124.461 79.24C130.201 81.96 131.551 89.4 127.131 93.96C124.461 96.73 120.201 97.5 116.721 95.85Z" fill="#3C3C3C"/>
<path d="M101.84 79.54C101.82 79.41 101.83 79.27 101.87 79.15C102.33 77.94 102.89 76.78 103.57 75.67C106.39 71.03 110.84 67.79 116.09 66.54C116.43 66.46 116.77 66.39 117.11 66.32C127.5 64.37 137.76 70.49 140.99 80.55C142.98 86.75 141.95 93.65 138.25 98.99C138.12 99.18 137.99 99.36 137.85 99.55C137.61 99.88 137.25 100.09 136.85 100.15C136.45 100.21 136.05 100.11 135.72 99.87C135.39 99.62 135.18 99.27 135.12 98.86C135.06 98.46 135.16 98.07 135.41 97.75C138.86 93.1 139.87 87.02 138.1 81.49C135.34 72.88 126.56 67.64 117.68 69.31C117.38 69.36 117.09 69.43 116.8 69.5C112.35 70.56 108.57 73.32 106.17 77.26C105.66 78.1 105.21 78.99 104.83 79.91C104.24 81.34 102.12 81.08 101.85 79.55L101.84 79.54Z" fill="#3C3C3C"/>
<path d="M155.25 28.13L133.06 50.37C133.06 50.37 133.03 50.34 133.02 50.33C143.15 60.85 149.38 75.13 149.38 90.89C149.38 123.2 123.19 149.39 90.8799 149.39C75.1699 149.39 60.9099 143.18 50.3999 133.1C50.4199 133.12 50.4299 133.13 50.4499 133.15L28.1299 155.52C63.3499 189.8 119.67 189.53 154.53 154.67C189.43 119.77 189.66 63.34 155.25 28.13Z" fill="#006D68"/>
<path d="M131.3 48.62L153.64 26.24C153.03 25.65 152.25 24.9 151.72 24.42C135.7 9.72 114.34 0.740005 90.8805 0.740005C67.4205 0.740005 46.1605 9.67001 30.1505 24.31C29.5605 24.85 28.6605 25.72 27.9805 26.37L50.3205 48.71C50.3205 48.71 50.4205 48.62 50.9305 48.15C61.3905 38.37 75.4305 32.38 90.8805 32.38C106.33 32.38 120.82 38.58 131.33 48.64C131.33 48.64 131.32 48.63 131.31 48.62H131.3Z" fill="#ACCA53"/>
</svg>
