<svg width="1200" height="1200" viewBox="0 0 1200 1200" fill="none" xmlns="http://www.w3.org/2000/svg">
<g clip-path="url(#clip0_131_8774)">
<mask id="mask0_131_8774" style="mask-type:luminance" maskUnits="userSpaceOnUse" x="0" y="0" width="1200" height="1200">
<path d="M0 -3.57628e-05H1200V1200H0V-3.57628e-05Z" fill="white"/>
</mask>
<g mask="url(#mask0_131_8774)">
<path d="M776.3 82.4672C728.298 64.4725 678.206 49.4032 626.942 49.6312C557.863 49.9365 492.198 77.8179 429.355 106.503C313.662 159.313 222.43 242.058 127.593 326.099C50.8272 394.126 38.2246 535.187 40.5353 631.027C40.8139 642.587 41.1045 654.21 41.6285 665.821C43.2432 701.558 47.0726 737.176 59.5992 770.492C79.6819 823.9 126.263 868.997 161.438 912.955C199.519 960.547 236.839 1000.25 288.105 1034.23C346.151 1072.7 429.147 1138.77 500.751 1144.83C590.885 1152.45 659.895 1156.12 746.53 1129.12C838.8 1100.36 939.925 1058.38 1006.33 984.81C1041.15 946.239 1063.88 891.187 1089.8 846.331C1140.36 758.833 1161.32 664.472 1148.31 563.891C1134.69 458.607 1093.34 377.919 1049.71 283.811C993.684 162.963 895.234 127.053 776.3 82.4672Z" fill="#EBF2D4"/>
<path d="M1157.93 1030.54H127.223C126.235 1030.54 125.437 1029.74 125.437 1028.75C125.437 1027.77 126.235 1026.97 127.223 1026.97H1157.93C1158.92 1026.97 1159.71 1027.77 1159.71 1028.75C1159.71 1029.74 1158.92 1030.54 1157.93 1030.54Z" fill="#BFBFBF"/>
<path d="M937.318 1062.7H583.627C582.64 1062.7 581.842 1061.9 581.842 1060.91C581.842 1059.92 582.64 1059.12 583.627 1059.12H937.318C938.304 1059.12 939.104 1059.92 939.104 1060.91C939.104 1061.9 938.304 1062.7 937.318 1062.7Z" fill="#BFBFBF"/>
<path d="M484.487 1062.7H347.834C346.846 1062.7 346.047 1061.9 346.047 1060.91C346.047 1059.92 346.846 1059.12 347.834 1059.12H484.487C485.474 1059.12 486.274 1059.92 486.274 1060.91C486.274 1061.9 485.474 1062.7 484.487 1062.7Z" fill="#BFBFBF"/>
<path d="M545.196 564.681C533.122 564.681 523.298 574.505 523.298 586.579V617.167C523.298 629.242 533.122 639.066 545.196 639.066H750.808C762.883 639.066 772.707 629.242 772.707 617.167V586.579C772.707 574.505 762.883 564.681 750.808 564.681H545.196ZM750.808 643.441H545.196C530.71 643.441 518.923 631.654 518.923 617.167V586.579C518.923 572.091 530.71 560.305 545.196 560.305H750.808C765.295 560.305 777.082 572.091 777.082 586.579V617.167C777.082 631.654 765.295 643.441 750.808 643.441Z" fill="#A7C553"/>
<path d="M545.196 474.252C533.122 474.252 523.298 484.076 523.298 496.151V526.739C523.298 538.814 533.122 548.638 545.196 548.638H750.808C762.883 548.638 772.707 538.814 772.707 526.739V496.151C772.707 484.076 762.883 474.252 750.808 474.252H545.196ZM750.808 553.012H545.196C530.71 553.012 518.923 541.226 518.923 526.739V496.151C518.923 481.663 530.71 469.876 545.196 469.876H750.808C765.295 469.876 777.082 481.663 777.082 496.151V526.739C777.082 541.226 765.295 553.012 750.808 553.012Z" fill="#A7C553"/>
<path d="M545.196 384.936C533.122 384.936 523.298 394.76 523.298 406.835V437.423C523.298 449.498 533.122 459.322 545.196 459.322H750.808C762.883 459.322 772.707 449.498 772.707 437.423V406.835C772.707 394.76 762.883 384.936 750.808 384.936H545.196ZM750.808 463.696H545.196C530.71 463.696 518.923 451.91 518.923 437.423V406.835C518.923 392.347 530.71 380.56 545.196 380.56H750.808C765.295 380.56 777.082 392.347 777.082 406.835V437.423C777.082 451.91 765.295 463.696 750.808 463.696Z" fill="#A7C553"/>
<path d="M754.84 915.552H538.246C528.187 915.552 520.032 907.397 520.032 897.337V873.16V848.982C520.032 838.922 528.187 830.768 538.246 830.768H754.84C764.9 830.768 773.055 838.922 773.055 848.982V897.337C773.055 907.397 764.9 915.552 754.84 915.552Z" fill="#006D68"/>
<path d="M753.259 888.249H699.054V858.07H753.259V888.249Z" fill="black"/>
<path d="M648.85 863.942C643.766 863.942 639.633 868.077 639.633 873.159C639.633 878.242 643.766 882.377 648.85 882.377H665.835C670.918 882.377 675.053 878.242 675.053 873.159C675.053 868.077 670.918 863.942 665.835 863.942H648.85ZM665.835 884.325H648.85C642.694 884.325 637.685 879.317 637.685 873.159C637.685 867.003 642.694 861.994 648.85 861.994H665.835C671.991 861.994 677.001 867.003 677.001 873.159C677.001 879.317 671.991 884.325 665.835 884.325Z" fill="#A6C453"/>
<path d="M579.542 852.096C579.234 850.277 577.762 848.808 575.838 848.612C573.527 848.376 571.463 850.059 571.227 852.369C570.993 854.68 572.675 856.745 574.986 856.98C576.331 857.117 577.581 856.592 578.446 855.684C584.835 858.332 589.358 864.321 590.053 871.288H572.197C571.617 866.512 568.858 862.249 564.827 859.721C564.786 857.715 563.319 855.967 561.267 855.653C558.971 855.303 556.825 856.88 556.474 859.176C556.123 861.472 557.701 863.617 559.997 863.969C561.19 864.151 562.335 863.805 563.218 863.116C565.986 864.991 567.91 867.956 568.442 871.288H550.99C550.301 869.905 548.887 868.947 547.238 868.947C544.915 868.947 543.031 870.829 543.031 873.152C543.031 875.475 544.915 877.359 547.238 877.359C548.887 877.359 550.301 876.4 550.99 875.017H568.443C567.915 878.355 565.99 881.327 563.218 883.204C562.337 882.515 561.19 882.168 559.997 882.351C557.701 882.701 556.123 884.848 556.474 887.144C556.825 889.44 558.971 891.017 561.267 890.667C563.319 890.352 564.786 888.604 564.827 886.597C568.862 884.068 571.622 879.8 572.198 875.017H590.055C589.365 881.989 584.839 887.985 578.446 890.636C577.581 889.727 576.331 889.201 574.986 889.339C572.675 889.575 570.993 891.639 571.227 893.949C571.463 896.26 573.527 897.944 575.838 897.708C577.762 897.512 579.234 896.043 579.542 894.224C587.483 891.08 593.09 883.641 593.801 875.017H611.95V871.288H593.799C593.083 862.671 587.478 855.239 579.542 852.096Z" fill="white"/>
<path d="M754.84 1004.67H538.246C528.187 1004.67 520.032 996.513 520.032 986.453V962.276V938.099C520.032 928.039 528.187 919.884 538.246 919.884H754.84C764.9 919.884 773.055 928.039 773.055 938.099V986.453C773.055 996.513 764.9 1004.67 754.84 1004.67Z" fill="#006D68"/>
<path d="M753.259 977.365H699.054V947.187H753.259V977.365Z" fill="black"/>
<path d="M648.85 953.059C643.766 953.059 639.633 957.194 639.633 962.277C639.633 967.359 643.766 971.494 648.85 971.494H665.835C670.918 971.494 675.053 967.359 675.053 962.277C675.053 957.194 670.918 953.059 665.835 953.059H648.85ZM665.835 973.442H648.85C642.694 973.442 637.685 968.433 637.685 962.277C637.685 956.121 642.694 951.111 648.85 951.111H665.835C671.991 951.111 677.001 956.121 677.001 962.277C677.001 968.433 671.991 973.442 665.835 973.442Z" fill="#A6C453"/>
<path d="M579.542 941.212C579.234 939.393 577.762 937.924 575.838 937.728C573.527 937.492 571.463 939.175 571.227 941.485C570.993 943.796 572.675 945.861 574.986 946.096C576.331 946.233 577.581 945.708 578.446 944.8C584.835 947.448 589.358 953.437 590.053 960.404H572.197C571.617 955.627 568.858 951.365 564.827 948.837C564.786 946.831 563.319 945.083 561.267 944.769C558.971 944.419 556.825 945.996 556.474 948.292C556.123 950.588 557.701 952.733 559.997 953.085C561.19 953.267 562.335 952.921 563.218 952.232C565.986 954.107 567.91 957.072 568.442 960.404H550.99C550.301 959.021 548.887 958.063 547.238 958.063C544.915 958.063 543.031 959.945 543.031 962.268C543.031 964.591 544.915 966.475 547.238 966.475C548.887 966.475 550.301 965.516 550.99 964.133H568.443C567.915 967.471 565.99 970.443 563.218 972.32C562.337 971.631 561.19 971.284 559.997 971.467C557.701 971.817 556.123 973.964 556.474 976.26C556.825 978.556 558.971 980.133 561.267 979.783C563.319 979.468 564.786 977.72 564.827 975.713C568.862 973.184 571.622 968.916 572.198 964.133H590.055C589.365 971.105 584.839 977.101 578.446 979.752C577.581 978.843 576.331 978.317 574.986 978.455C572.675 978.691 570.993 980.755 571.227 983.065C571.463 985.376 573.527 987.06 575.838 986.824C577.762 986.628 579.234 985.157 579.542 983.34C587.483 980.196 593.09 972.757 593.801 964.133H611.95V960.404H593.799C593.083 951.787 587.478 944.355 579.542 941.212Z" fill="#A7C553"/>
<path d="M754.84 825.123H538.246C528.187 825.123 520.032 816.968 520.032 806.908V784.491V758.554C520.032 748.494 528.187 740.339 538.246 740.339H754.84C764.9 740.339 773.055 748.494 773.055 758.554V806.908C773.055 816.968 764.9 825.123 754.84 825.123Z" fill="#006D68"/>
<path d="M753.259 797.82H699.054V767.641H753.259V797.82Z" fill="black"/>
<path d="M648.85 773.513C643.766 773.513 639.633 777.648 639.633 782.731C639.633 787.813 643.766 791.948 648.85 791.948H665.835C670.918 791.948 675.053 787.813 675.053 782.731C675.053 777.648 670.918 773.513 665.835 773.513H648.85ZM665.835 793.896H648.85C642.694 793.896 637.685 788.888 637.685 782.731C637.685 776.575 642.694 771.565 648.85 771.565H665.835C671.991 771.565 677.001 776.575 677.001 782.731C677.001 788.888 671.991 793.896 665.835 793.896Z" fill="#A6C453"/>
<path d="M570.375 779.386L554.785 785.368L570.375 791.348V797.472L547.391 788.476V782.213L570.375 773.264V779.386Z" fill="#A7C553"/>
<path d="M572.02 764.503L578.142 762.667L590.389 800.956L584.265 802.795L572.02 764.503Z" fill="#A7C553"/>
<path d="M615.023 782.213V788.475L592.039 797.471V791.349L607.628 785.367L592.039 779.386V773.263L615.023 782.213Z" fill="#A7C553"/>
<path d="M754.84 734.694H538.246C528.187 734.694 520.032 726.539 520.032 716.479V692.302V668.125C520.032 658.065 528.187 649.91 538.246 649.91H754.84C764.9 649.91 773.055 658.065 773.055 668.125V716.479C773.055 726.539 764.9 734.694 754.84 734.694Z" fill="#A7C553"/>
<path d="M538.246 651.368C529.006 651.368 521.49 658.884 521.49 668.124V716.48C521.49 725.719 529.006 733.236 538.246 733.236H754.841C764.08 733.236 771.597 725.719 771.597 716.48V668.124C771.597 658.884 764.08 651.368 754.841 651.368H538.246ZM754.841 736.152H538.246C527.398 736.152 518.574 727.327 518.574 716.48V668.124C518.574 657.276 527.398 648.452 538.246 648.452H754.841C765.688 648.452 774.513 657.276 774.513 668.124V716.48C774.513 727.327 765.688 736.152 754.841 736.152Z" fill="#A7C553"/>
<path d="M753.259 707.391H699.054V677.212H753.259V707.391Z" fill="black"/>
<path d="M648.85 683.085C643.766 683.085 639.633 687.219 639.633 692.302C639.633 697.385 643.766 701.519 648.85 701.519H665.835C670.918 701.519 675.053 697.385 675.053 692.302C675.053 687.219 670.918 683.085 665.835 683.085H648.85ZM665.835 703.467H648.85C642.694 703.467 637.685 698.458 637.685 692.302C637.685 686.146 642.694 681.137 648.85 681.137H665.835C671.991 681.137 677.001 686.146 677.001 692.302C677.001 698.458 671.991 703.467 665.835 703.467Z" fill="white"/>
<path d="M580.818 707.667C572.332 707.667 565.452 700.788 565.452 692.302C565.452 683.816 572.332 676.938 580.818 676.938C589.303 676.938 596.183 683.816 596.183 692.302C596.183 700.788 589.303 707.667 580.818 707.667ZM611.95 698.327V686.276H603.612C603.066 684.206 602.252 682.25 601.199 680.443L607.092 674.55L598.571 666.028L592.678 671.922C590.871 670.867 588.914 670.054 586.843 669.508V661.17H574.792V669.508C572.722 670.054 570.766 670.867 568.959 671.922L563.064 666.028L554.543 674.55L560.436 680.443C559.383 682.25 558.57 684.206 558.024 686.276H549.686V698.327H558.024C558.57 700.398 559.383 702.355 560.436 704.162L554.543 710.055L563.064 718.576L568.959 712.683C570.766 713.736 572.722 714.55 574.792 715.096V723.434H586.843V715.096C588.914 714.55 590.871 713.736 592.678 712.683L598.571 718.576L607.092 710.055L601.199 704.162C602.252 702.355 603.066 700.398 603.612 698.327H611.95Z" fill="white"/>
<path d="M379.523 1005.88L462.438 1008.66L413.319 986.426L407.804 809.405C360.439 823.322 271.873 808.845 245.32 788.762L200.66 1005.88L283.575 1008.66L247.012 986.426L327.973 859.006L379.523 1005.88Z" fill="white"/>
<path d="M462.439 1010.53C462.417 1010.53 462.396 1010.53 462.375 1010.53L379.459 1007.75C378.689 1007.72 378.015 1007.22 377.759 1006.5L327.487 863.259L249.612 985.82L284.545 1007.06C285.272 1007.5 285.608 1008.38 285.367 1009.19C285.121 1010.01 284.34 1010.58 283.512 1010.53L200.596 1007.75C200.048 1007.73 199.535 1007.47 199.193 1007.04C198.852 1006.61 198.719 1006.05 198.827 1005.51L242.393 789.02C242.597 788.008 243.581 787.353 244.596 787.556C245.608 787.76 246.263 788.745 246.059 789.757L202.927 1004.08L276.512 1006.55L246.041 988.024C245.611 987.764 245.305 987.34 245.192 986.852C245.077 986.363 245.164 985.848 245.433 985.425L326.396 858.004C326.78 857.4 327.471 857.067 328.187 857.149C328.897 857.231 329.5 857.712 329.737 858.387L380.861 1004.05L453.08 1006.47L412.548 988.129C411.899 987.835 411.473 987.197 411.451 986.485L405.851 806.732C405.819 805.7 406.628 804.837 407.66 804.805C408.781 804.841 409.556 805.584 409.587 806.615L415.151 985.204L463.208 1006.96C464.02 1007.33 464.46 1008.22 464.257 1009.08C464.06 1009.93 463.304 1010.53 462.439 1010.53Z" fill="#3C3C3B"/>
<path d="M327.974 859.007L355.386 824.119Z" fill="white"/>
<path d="M327.973 860.876C327.569 860.876 327.162 860.744 326.818 860.476C326.008 859.839 325.866 858.663 326.504 857.851L353.916 822.963C354.554 822.152 355.726 822.012 356.541 822.648C357.352 823.287 357.493 824.461 356.856 825.273L329.444 860.161C329.076 860.631 328.526 860.876 327.973 860.876Z" fill="#3C3C3B"/>
<path d="M464.907 467.551C474.532 496.495 458.871 527.76 429.928 537.385C400.984 547.011 369.719 531.349 360.094 502.405C350.468 473.463 366.13 442.196 395.072 432.572C424.016 422.947 455.282 438.607 464.907 467.551Z" fill="#3C3C3B"/>
<path d="M496.248 668.512C505.667 666.902 515.925 657.268 525.568 659.052C527.948 659.494 530.111 660.714 532.444 661.354C534.703 661.972 545.625 663.02 543.637 658.15C542.693 655.835 536.807 655.168 534.719 654.43C530.596 652.97 526.437 651.576 522.585 649.474C523.127 649.77 528.527 646.878 529.565 646.751C536.165 645.944 541.785 651.196 548.303 648.936C551.389 647.867 560.907 643.575 560.405 638.711C560.108 635.819 544.817 635.63 541.463 634.442C535.788 632.434 530.119 630.388 524.479 628.288C521.623 627.224 518.645 626.143 515.612 626.432C512.819 626.699 510.28 628.1 507.833 629.472C496.189 636.003 484.269 647.891 470.653 649.624" fill="white"/>
<path d="M496.246 670.381C495.353 670.381 494.562 669.737 494.406 668.827C494.231 667.809 494.915 666.843 495.933 666.669C499.487 666.063 503.239 664.189 507.211 662.207C513.287 659.177 519.566 656.047 525.907 657.215C527.445 657.499 528.843 658.048 530.195 658.58C531.099 658.935 532.002 659.293 532.937 659.551C535.335 660.208 541.302 660.256 542.026 659.205C541.509 658.012 537.863 657.153 536.49 656.831C535.527 656.604 534.677 656.397 534.095 656.192L532.973 655.796C529.213 654.469 525.326 653.099 521.693 651.115C521.691 651.115 521.691 651.115 521.69 651.113C520.785 650.62 520.45 649.484 520.945 648.579C521.293 647.937 521.965 647.611 522.649 647.605C523.229 647.428 524.717 646.751 525.635 646.332C527.737 645.376 528.659 644.979 529.338 644.895C532.699 644.489 535.699 645.417 538.597 646.319C541.863 647.336 544.683 648.215 547.69 647.171C552.121 645.635 558.303 642.016 558.547 639.251C557.061 638.352 551.185 637.693 547.95 637.332C544.39 636.932 542.141 636.665 540.838 636.204C535.154 634.193 529.477 632.144 523.825 630.039C521.31 629.101 518.473 628.043 515.789 628.293C513.343 628.527 511.006 629.836 508.749 631.103C505.183 633.1 501.619 635.595 497.845 638.233C489.417 644.132 480.701 650.229 470.889 651.479C469.871 651.603 468.93 650.885 468.798 649.86C468.669 648.836 469.393 647.9 470.418 647.769C479.313 646.637 487.645 640.808 495.703 635.171C499.555 632.476 503.194 629.931 506.919 627.841C509.397 626.453 512.203 624.88 515.433 624.571C518.959 624.235 522.381 625.511 525.13 626.536C530.762 628.633 536.421 630.675 542.086 632.679C543.05 633.021 545.754 633.324 548.367 633.616C557.021 634.585 561.933 635.292 562.265 638.52C563.007 645.733 549.49 650.503 548.915 650.703C544.742 652.151 541.055 650.997 537.486 649.888C534.849 649.067 532.359 648.285 529.791 648.605C529.51 648.679 528.231 649.257 527.317 649.675C529.534 650.619 531.833 651.429 534.217 652.271L535.342 652.668C535.827 652.839 536.541 653.001 537.346 653.191C540.445 653.92 544.301 654.828 545.367 657.444C546.25 659.605 545.399 661.036 544.814 661.696C541.918 664.96 533.169 663.491 531.949 663.155C530.886 662.864 529.857 662.463 528.827 662.059C527.586 661.571 526.413 661.109 525.227 660.891C520.113 659.939 514.405 662.795 508.881 665.552C504.841 667.568 500.662 669.653 496.563 670.355C496.457 670.372 496.35 670.381 496.246 670.381Z" fill="#3C3C3B"/>
<path d="M452.912 447.787C444.68 419.996 423.705 400.568 398.197 387.913C386.741 382.229 386.209 379.113 377.571 368.305C364.436 351.869 350.703 361.555 335.2 354.283C333.829 353.64 332.581 352.911 331.427 352.117C321.132 345.051 318.241 332.991 302.027 333.156C288.245 333.295 274.607 343.173 272.247 357.099C271.544 361.251 272.004 365.748 274.336 369.255C282.027 380.816 287.633 376.74 284.373 389.796C281.997 399.313 273.641 403.379 274.799 415.512C275.835 426.371 282.451 436.547 291.953 441.901C296.664 444.556 302.191 446.229 305.613 450.415C309.615 455.309 309.621 462.197 310.757 468.417C315.927 496.725 342.915 525.735 373.596 523.928C368.744 519.556 374.424 508.076 374.953 502.14C374.709 504.881 370.027 498.995 370.043 499.016C367.88 496.233 368.221 491.913 368.003 488.685C367.433 480.22 368.908 471.468 376.501 466.403C378.927 464.784 381.844 463.703 384.737 464.065C387.631 464.428 390.412 466.496 390.995 469.353C390.105 464.995 402.035 453.732 404.799 450.761C410.857 444.247 416.64 441.976 425.885 441.021C434.385 440.144 443.459 443.052 452.912 447.787Z" fill="white"/>
<path d="M302.353 335.067C302.251 335.067 302.149 335.067 302.047 335.069C288.493 335.206 276.233 345.023 274.133 357.417C273.432 361.571 274.069 365.398 275.929 368.195C278.543 372.126 280.873 374.121 282.745 375.723C286.704 379.114 288.505 381.149 286.231 390.259C285.223 394.295 283.261 397.361 281.365 400.325C278.639 404.586 276.063 408.611 276.704 415.33C277.685 425.619 283.889 435.161 292.892 440.234C294.179 440.959 295.527 441.607 296.875 442.257C300.556 444.03 304.363 445.863 307.093 449.203C310.547 453.426 311.288 458.767 312.005 463.934C312.199 465.327 312.392 466.717 312.64 468.073C317.375 494.006 341.857 521.659 370.225 522.09C368.943 518.141 370.377 512.865 371.679 508.077C372.048 506.719 372.405 505.407 372.665 504.231C371.672 503.633 370.339 502.453 368.548 500.211C366.396 497.442 366.273 493.689 366.175 490.674C366.153 490.027 366.133 489.402 366.093 488.814C365.332 477.533 368.477 469.455 375.439 464.81C377.651 463.337 381.107 461.694 384.977 462.167C387.067 462.43 388.964 463.342 390.389 464.67C392.348 461.138 396.337 456.677 401.701 451.207C402.413 450.482 403.001 449.883 403.396 449.458C409.427 442.977 415.468 440.174 425.688 439.119C432.716 438.386 440.433 439.997 449.715 444.151C441.637 421.449 423.621 402.662 397.347 389.627C387.812 384.897 385.356 381.649 380.463 375.178C379.227 373.543 377.817 371.679 376.076 369.501C368.639 360.194 361.216 359.883 352.621 359.526C346.819 359.282 340.817 359.031 334.385 356.015C332.976 355.353 331.655 354.594 330.344 353.695C326.777 351.247 324.107 348.29 321.525 345.431C316.505 339.875 312.163 335.067 302.353 335.067ZM370.796 525.925C339.871 525.926 314.027 496.975 308.875 468.762C308.617 467.351 308.416 465.909 308.215 464.461C307.54 459.603 306.904 455.017 304.132 451.626C301.937 448.942 298.672 447.37 295.215 445.705C293.792 445.019 292.369 444.334 291.013 443.569C280.936 437.891 273.993 427.21 272.893 415.694C272.128 407.661 275.185 402.882 278.141 398.262C279.952 395.433 281.66 392.761 282.517 389.333C284.319 382.113 283.377 381.305 280.256 378.63C278.312 376.966 275.651 374.687 272.743 370.314C270.34 366.705 269.495 361.897 270.36 356.779C272.76 342.614 286.661 331.398 302.007 331.242C313.787 331.182 319.151 337.094 324.365 342.866C326.799 345.561 329.315 348.347 332.509 350.541C333.647 351.321 334.792 351.978 336.012 352.55C341.745 355.241 347.356 355.475 352.781 355.702C361.512 356.066 370.541 356.443 379.065 367.111C380.832 369.321 382.261 371.211 383.515 372.87C388.328 379.235 390.321 381.87 399.047 386.199C427.896 400.51 447.156 421.619 454.747 447.243C454.963 447.975 454.724 448.765 454.14 449.254C453.555 449.746 452.736 449.837 452.053 449.498C441.605 444.262 433.36 442.177 426.081 442.926C416.785 443.885 411.583 446.277 406.2 452.063C405.787 452.507 405.176 453.131 404.435 453.887C394.431 464.089 392.621 467.718 392.869 468.966C392.869 468.967 392.869 468.969 392.869 468.971C393.081 470.006 392.413 471.017 391.377 471.229C390.353 471.437 389.333 470.773 389.12 469.735C388.739 467.867 386.753 466.247 384.5 465.965C382.387 465.703 379.924 466.419 377.563 467.994C371.744 471.877 369.241 478.602 369.913 488.557C369.956 489.187 369.977 489.857 370 490.549C370.085 493.138 370.18 496.075 371.553 497.841C372.369 498.862 373.347 499.898 374.036 500.503C374.365 500.318 374.748 500.225 375.152 500.271C376.189 500.382 376.952 501.27 376.86 502.311C376.687 504.246 376.048 506.594 375.372 509.079C374.023 514.045 372.343 520.223 374.877 522.507C375.451 523.025 375.657 523.834 375.401 524.562C375.147 525.29 374.479 525.794 373.709 525.838C372.733 525.897 371.761 525.925 370.796 525.925Z" fill="#3C3C3B"/>
<path d="M472.898 700.964C472.773 701.005 472.648 701.048 472.518 701.088L424.269 716.488C396.944 725.211 367.845 720.707 344.437 704.133C321.028 687.556 307.117 661.608 306.266 632.939L304.749 581.516C304.22 563.663 318.25 548.744 336.125 548.231C353.978 547.701 368.884 561.748 369.41 579.607L370.934 631.027C371.174 639.205 375.142 646.608 381.821 651.333C388.498 656.065 396.801 657.349 404.6 654.86L452.848 639.46C469.864 634.027 488.065 643.419 493.497 660.439C498.889 677.328 489.676 695.385 472.898 700.964Z" fill="#006D68"/>
<mask id="mask1_131_8774" style="mask-type:luminance" maskUnits="userSpaceOnUse" x="241" y="521" width="182" height="295">
<path d="M241.838 521.112H422.789V815.271H241.838V521.112Z" fill="white"/>
</mask>
<g mask="url(#mask1_131_8774)">
<path d="M406.653 807.828C408.702 807.204 421.334 661.798 421.309 626.304C421.289 598.918 422.765 571.304 404.839 548.534C383.53 521.466 348.957 513.544 320.161 534.381C303.054 546.758 291.51 565.434 283.043 584.778C270.519 613.396 245.874 738.748 243.298 787.408C243.17 789.812 339.561 828.248 406.653 807.828Z" fill="#A7C553"/>
<path d="M244.788 786.841C252.662 792.319 342.052 825.543 405.56 806.634C407.93 796.582 419.875 661.397 419.85 626.305L419.86 620.41C419.943 594.577 420.019 570.175 403.692 549.435C381.928 521.79 347.928 516.086 321.015 535.562C306.403 546.137 294.419 562.426 284.379 585.363C271.827 614.045 247.544 737.751 244.788 786.841ZM361.744 815.27C305.744 815.27 248.087 793.129 242.674 788.891C242.455 788.721 241.794 788.203 241.84 787.331C244.427 738.487 269.018 613.189 281.707 584.193C291.96 560.767 304.259 544.086 319.306 533.199C347.555 512.753 383.2 518.69 405.986 547.631C422.94 569.169 422.858 595.223 422.778 620.419L422.767 626.303C422.78 644.891 419.39 692.194 416.212 730.265C409.687 808.43 408.179 808.889 407.076 809.223C392.878 813.545 377.372 815.27 361.744 815.27Z" fill="#A7C553"/>
</g>
<path d="M940.34 997.116L843.507 998.236L894.751 962.759L894.889 692.528L1044.45 680.065L1084.49 997.116L992.356 1000.21L1032.99 967.617L974.453 791.637L940.34 997.116Z" fill="#006D68"/>
<path d="M974.454 790.783C974.819 790.783 975.147 791.016 975.265 791.367L1033.8 967.348C1033.91 967.687 1033.8 968.06 1033.52 968.283L994.89 999.267L1083.53 996.295L1043.71 680.984L895.742 693.313L895.605 962.759C895.605 963.039 895.467 963.301 895.237 963.46L846.285 997.351L939.617 996.271L973.613 791.496C973.677 791.109 973.997 790.816 974.389 790.787C974.41 790.784 974.433 790.783 974.454 790.783ZM992.357 1001.06C991.999 1001.06 991.681 1000.84 991.555 1000.5C991.429 1000.16 991.535 999.771 991.822 999.54L1031.99 967.324L974.733 795.173L941.182 997.256C941.115 997.663 940.765 997.964 940.35 997.969L843.517 999.089C843.115 999.099 842.807 998.852 842.694 998.495C842.579 998.137 842.714 997.748 843.022 997.535L893.898 962.312L894.037 692.528C894.037 692.084 894.377 691.715 894.819 691.679L1044.38 679.215C1044.82 679.169 1045.24 679.505 1045.3 679.959L1085.34 997.009C1085.37 997.248 1085.3 997.488 1085.14 997.669C1084.99 997.852 1084.76 997.961 1084.52 997.968L992.385 1001.06C992.375 1001.06 992.366 1001.06 992.357 1001.06Z" fill="#006D68"/>
<path d="M1032.09 968.026C1031.39 968.026 1030.73 967.585 1030.48 966.881L951.99 741.637C951.68 740.747 952.149 739.775 953.04 739.465C953.933 739.153 954.902 739.625 955.213 740.514L1033.71 965.758C1034.02 966.647 1033.55 967.619 1032.66 967.93C1032.47 967.995 1032.28 968.026 1032.09 968.026Z" fill="white"/>
<path d="M795.038 556.693C795.329 563.537 792.181 569.22 786.117 572.193C779.084 575.641 771.158 576.842 763.701 578.564C758.074 579.862 753.81 582.68 749.061 585.797C748.554 586.129 747.993 586.473 747.392 586.413C742.52 585.924 749.866 575.317 751.054 574.1C753.708 571.384 758.378 570.078 759.602 566.113C762.061 558.133 743.53 562.525 740.478 563.176C735.148 564.313 730.026 566.262 724.7 567.426C722.045 568.006 703.729 568.736 709.998 562.514C714.525 558.024 717.29 552.106 720.84 546.809C721.937 545.174 723.136 543.568 724.708 542.381C726.693 540.882 729.138 540.153 731.525 539.45C740.662 536.765 750.124 532.75 759.746 532.862C776.892 533.062 794.336 540.153 795.038 556.693Z" fill="white"/>
<path d="M753.243 559.482C756.832 559.482 759.192 560.214 760.543 561.683C761.364 562.577 762.18 564.167 761.409 566.67C760.421 569.869 757.785 571.599 755.459 573.125C754.304 573.882 753.211 574.598 752.407 575.422C751.028 576.833 747.165 583.198 747.651 584.726C747.585 584.503 747.913 584.287 748.023 584.217C752.883 581.026 757.364 578.085 763.276 576.721C764.797 576.37 766.336 576.041 767.884 575.71C773.784 574.447 779.884 573.142 785.284 570.494C790.62 567.878 793.413 563.005 793.149 556.773C792.471 540.798 774.719 534.929 759.724 534.754C752.551 534.689 745.353 537.017 738.357 539.286C736.243 539.973 734.141 540.653 732.057 541.266C729.857 541.913 727.581 542.582 725.848 543.891C724.471 544.929 723.383 546.413 722.411 547.862C721.34 549.461 720.341 551.118 719.344 552.773C717.029 556.609 714.636 560.578 711.331 563.858C710.663 564.519 710.588 564.841 710.588 564.845C711.675 566.006 721.42 566.209 724.296 565.578C726.872 565.015 729.397 564.265 731.924 563.514C734.569 562.73 737.303 561.919 740.083 561.326L740.571 561.221C745.873 560.063 750.047 559.482 753.243 559.482ZM747.529 588.31C747.423 588.31 747.312 588.306 747.201 588.294C745.699 588.143 744.565 587.314 744.095 586.017C742.507 581.65 749.625 572.857 749.701 572.779C750.792 571.661 752.111 570.797 753.384 569.962C755.351 568.671 757.209 567.453 757.795 565.554C758.088 564.602 757.84 564.331 757.759 564.245C757.237 563.675 754.515 562.047 741.377 564.917L740.872 565.026C738.237 565.589 735.575 566.378 733 567.142C730.44 567.901 727.792 568.687 725.104 569.274C724.959 569.306 709.856 571.249 707.215 566.395C706.605 565.274 706.361 563.459 708.667 561.171C711.64 558.222 713.808 554.626 716.104 550.819C717.133 549.113 718.164 547.405 719.269 545.757C720.424 544.031 721.745 542.246 723.568 540.871C725.853 539.147 728.583 538.345 730.992 537.637C733.041 537.034 735.109 536.363 737.191 535.689C744.477 533.325 752.121 530.947 759.768 530.971C776.415 531.165 796.135 537.998 796.927 556.613C797.255 564.323 793.619 570.621 786.949 573.891C781.132 576.743 774.799 578.098 768.676 579.409C767.148 579.735 765.628 580.059 764.127 580.406C758.875 581.619 754.86 584.253 750.212 587.303C749.597 587.707 748.677 588.31 747.529 588.31Z" fill="#3C3C3B"/>
<path d="M799.573 592.586C799.696 592.628 799.818 592.668 799.945 592.708L847.033 607.829C873.701 616.392 902.124 612.044 925.009 595.9C947.897 579.752 961.525 554.437 962.404 526.444L963.973 476.232C964.52 458.798 950.845 444.206 933.392 443.676C915.958 443.129 901.38 456.82 900.834 474.257L899.26 524.466C899.01 532.453 895.124 539.674 888.594 544.277C882.065 548.886 873.956 550.126 866.345 547.682L819.257 532.561C802.65 527.228 784.86 536.369 779.528 552.978C774.234 569.462 783.2 587.11 799.573 592.586Z" fill="#A7C553"/>
<path d="M891.084 687.489C889.504 686.121 890.104 635.504 889.779 627.08C888.446 592.522 887.371 557.844 890.294 523.334C892.548 496.71 893.367 469.74 912.655 449.064C935.583 424.485 969.846 419.605 996.143 442.214C1011.76 455.646 1021.46 474.746 1028.12 494.245C1037.96 523.092 1050.35 633.849 1048.89 681.372C1048.82 683.72 948.59 737.301 891.084 687.489Z" fill="#E6E6E6"/>
<path d="M892.042 686.735C946.657 733.769 1041.77 686.083 1047.7 680.936C1049.09 633.2 1036.94 523.805 1026.99 494.632C1019.08 471.472 1008.74 454.623 995.362 443.121C970.684 421.903 937.033 424.685 913.53 449.879C895.909 468.771 893.988 492.543 891.956 517.709L891.485 523.436C888.621 557.261 889.56 590.365 890.976 627.032C891.076 629.641 891.089 636.028 891.104 644.116C891.133 659.023 891.181 683.808 892.042 686.735ZM953.605 709.732C931.549 709.732 908.8 704.417 890.301 688.393C889.152 687.399 888.782 681.161 888.712 644.121C888.696 636.377 888.684 629.689 888.584 627.125C887.165 590.377 886.224 557.196 889.101 523.233L889.57 517.517C891.546 493.048 893.589 467.747 911.78 448.247C936.209 422.061 971.221 419.209 996.924 441.307C1010.63 453.095 1021.21 470.285 1029.25 493.859C1039.29 523.283 1051.56 633.709 1050.08 681.409C1050.01 683.797 1033.7 691.015 1031.84 691.829C1018.92 697.489 987.066 709.732 953.605 709.732Z" fill="#E6E6E6"/>
<path d="M899.957 611.179L950.591 640.414C952.547 641.542 953.217 644.042 952.089 645.998L932.727 679.531C931.598 681.487 929.098 682.157 927.143 681.029L876.507 651.794C874.553 650.665 873.882 648.165 875.011 646.21L894.373 612.675C895.501 610.721 898.002 610.05 899.957 611.179Z" fill="#3C3C3B"/>
<path d="M860.861 365.42C849.14 392.776 861.815 424.455 889.171 436.175C916.527 447.896 948.205 435.221 959.927 407.865C971.647 380.509 958.972 348.832 931.616 337.111C904.26 325.389 872.583 338.064 860.861 365.42Z" fill="white"/>
<path d="M862.6 366.165C851.309 392.52 863.563 423.145 889.916 434.437C902.683 439.908 916.817 440.078 929.709 434.918C942.604 429.758 952.719 419.888 958.188 407.121C963.659 394.356 963.829 380.222 958.671 367.328C953.511 354.433 943.639 344.318 930.872 338.849C904.525 327.564 873.895 339.814 862.6 366.165ZM910.384 442.452C902.931 442.452 895.485 440.937 888.427 437.913C860.156 425.801 847.011 392.946 859.124 364.676C871.236 336.404 904.092 323.261 932.361 335.373C946.057 341.24 956.648 352.089 962.181 365.922C967.716 379.756 967.533 394.917 961.664 408.61C955.797 422.306 944.948 432.896 931.115 438.43C924.411 441.112 917.393 442.452 910.384 442.452Z" fill="#3C3C3B"/>
<path d="M887.663 318.699C889.237 317.627 890.852 316.624 892.491 315.698C931.608 293.567 982.276 310.18 995.871 354.654C999.345 366.018 1003.34 377.702 1003.29 389.791C1031.67 376.664 1049.29 406.248 1036.6 431.327C1031.84 440.726 1021.81 447.648 1011.28 447.295C1000.48 446.932 991.557 438.599 989.849 428.118C984.413 429.764 947.297 423.446 946.46 428.044C947.827 420.542 945.54 413.964 945.5 406.394C945.515 409.08 950.547 403.738 950.529 403.758C952.86 401.228 952.881 397 953.356 393.88C954.601 385.695 953.881 377.066 946.913 371.52C944.687 369.748 941.937 368.459 939.095 368.576C936.252 368.692 933.379 370.476 932.58 373.202C934.747 365.735 922.612 355.41 917.449 351.823C901.595 340.808 883.557 339.967 868.617 353.123C868.944 337.687 874.732 327.506 887.663 318.699Z" fill="#3C3C3B"/>
<path d="M989.849 426.282C990.189 426.282 990.525 426.377 990.819 426.559C991.269 426.841 991.575 427.299 991.659 427.822C993.271 437.714 1001.55 445.133 1011.34 445.462C1020.78 445.759 1030.27 439.763 1034.96 430.498C1041.29 417.978 1039.96 403.265 1031.7 394.715C1024.9 387.666 1014.82 386.479 1004.06 391.457C1003.49 391.719 1002.83 391.674 1002.3 391.335C1001.77 390.997 1001.45 390.411 1001.46 389.783C1001.5 379.089 998.241 368.542 995.087 358.343L994.115 355.189C988.063 335.394 974.267 320.318 955.267 312.737C935.21 304.737 912.657 306.397 893.393 317.295C891.799 318.197 890.227 319.171 888.694 320.215C877.243 328.014 871.827 336.578 870.674 349.111C884.973 338.618 902.185 338.983 918.495 350.315C919.131 350.757 931.579 359.503 934.19 368.279C935.574 367.373 937.246 366.815 939.018 366.741C942.826 366.595 946.029 368.474 948.054 370.083C954.434 375.161 956.829 383.261 955.169 394.157C955.082 394.723 955.011 395.331 954.939 395.958C954.597 398.877 954.173 402.511 951.878 405.001C949.849 407.131 948.427 408.174 947.413 408.651C947.535 410.677 947.786 412.663 948.031 414.602C948.45 417.911 948.877 421.303 948.674 424.877C952.849 424.115 960.446 424.607 972.499 425.639C979.515 426.239 987.466 426.917 989.317 426.361C989.491 426.309 989.67 426.282 989.849 426.282ZM1012.04 449.143C1011.77 449.143 1011.49 449.138 1011.22 449.129C1000.27 448.762 990.938 440.902 988.39 430.179C985.279 430.386 979.87 429.954 972.187 429.295C964.046 428.599 950.53 427.439 948.146 428.766C947.815 429.537 946.977 429.993 946.13 429.85C945.133 429.667 944.471 428.711 944.653 427.715C944.654 427.713 944.654 427.711 944.655 427.709C945.441 423.385 944.931 419.342 944.391 415.062C944.042 412.297 943.681 409.438 943.665 406.405C943.659 405.39 944.477 404.563 945.49 404.558C945.935 404.507 946.253 404.681 946.555 404.891C947.234 404.389 948.221 403.519 949.194 402.498C950.666 400.901 950.999 398.047 951.294 395.531C951.373 394.861 951.449 394.213 951.541 393.605C953.009 383.969 951.121 377.214 945.77 372.955C943.597 371.227 941.263 370.319 939.169 370.409C936.943 370.501 934.866 371.922 934.341 373.718C934.055 374.69 933.037 375.245 932.066 374.962C931.094 374.679 930.535 373.662 930.817 372.69C932.461 367.025 922.847 357.807 916.402 353.329C900.329 342.162 883.353 342.593 869.829 354.499C869.281 354.982 868.498 355.09 867.842 354.787C867.182 354.481 866.765 353.813 866.781 353.083C867.119 337.163 873.055 326.427 886.629 317.182C888.246 316.081 889.903 315.053 891.586 314.101C911.822 302.653 935.529 300.913 956.627 309.329C976.681 317.33 991.242 333.235 997.625 354.117L998.593 357.259C1001.56 366.866 1004.63 376.774 1005.07 387.045C1016.38 382.691 1026.94 384.498 1034.34 392.166C1043.66 401.821 1045.26 418.265 1038.23 432.155C1033.04 442.403 1022.6 449.142 1012.04 449.143Z" fill="#3C3C3B"/>
<mask id="mask2_131_8774" style="mask-type:luminance" maskUnits="userSpaceOnUse" x="942" y="452" width="131" height="213">
<path d="M942.634 452.597H1072.37V664.479H942.634V452.597Z" fill="white"/>
</mask>
<g mask="url(#mask2_131_8774)">
<path d="M1002.62 658.966C1002.72 658.885 1002.82 658.802 1002.92 658.717L1040.79 626.969C1062.24 608.987 1073.7 582.645 1072.25 554.698C1070.79 526.749 1056.65 501.741 1033.46 486.083L991.85 458.006C977.405 448.255 957.785 452.041 948.037 466.511C938.286 480.957 942.093 500.575 956.542 510.325L998.146 538.407C1004.76 542.873 1008.8 550.005 1009.21 557.977C1009.63 565.951 1006.36 573.467 1000.23 578.599L962.365 610.347C949.009 621.543 950.014 636.739 961.214 650.097C972.327 663.354 989.266 669.889 1002.62 658.966Z" fill="#A7C553"/>
</g>
<path d="M991.934 663.26C986.591 668.252 973.588 663.02 962.89 651.572C952.191 640.124 947.85 626.796 953.192 621.804C958.535 616.811 971.538 622.044 982.236 633.492C992.934 644.94 997.276 658.268 991.934 663.26Z" fill="#3C3C3B"/>
<path d="M975.462 659.487C975.292 659.8 975.094 660.097 974.866 660.38C968.048 668.828 956.114 675.211 946.3 679.545C941.209 681.793 935.501 682.999 930.038 681.939C922.545 680.484 916.708 675.191 909.833 672.257C906.312 670.755 903.653 670.087 900.366 668.111C899.02 667.301 897.894 666.015 896.728 664.979C896.014 664.344 893.234 662.916 893.701 661.684C894.117 660.584 901.609 659.769 902.994 659.38C909.725 657.492 916.18 654.769 922.601 652.037C926.993 650.168 937.981 645.681 927.866 641.571C923.71 639.883 921.196 635.576 920.789 631.237C920.609 629.321 920.808 622.159 924.044 623.677C929.702 626.332 935.07 629.675 941.014 631.605C944.776 632.828 948.728 633.459 952.684 633.48C957.241 633.505 960.742 632.38 964.417 635.327C967.852 638.081 970.913 641.267 973.084 645.127C975.246 648.972 977.68 655.42 975.462 659.487Z" fill="white"/>
<path d="M896.515 662.501C896.711 662.641 896.895 662.766 897.024 662.854C897.429 663.133 897.775 663.38 897.983 663.564C898.348 663.889 898.709 664.234 899.075 664.585C899.847 665.329 900.577 666.03 901.341 666.49C903.425 667.742 905.232 668.43 907.323 669.226C908.351 669.616 909.416 670.022 910.575 670.517C913.313 671.685 915.881 673.204 918.364 674.674C922.336 677.025 926.087 679.244 930.4 680.081C936.141 681.196 941.8 679.465 945.535 677.816C958.763 671.973 968.136 665.708 973.393 659.192C973.552 658.997 973.685 658.793 973.8 658.581C975.5 655.464 973.589 649.884 971.435 646.053C969.593 642.777 966.911 639.752 963.233 636.801C960.963 634.982 958.785 635.102 955.76 635.269C954.779 635.322 953.775 635.386 952.672 635.372C948.492 635.348 944.373 634.685 940.429 633.405C936.296 632.061 932.436 630.062 928.704 628.13C926.893 627.192 925.083 626.254 923.24 625.389C922.877 625.842 922.489 629.125 922.671 631.06C923.048 635.076 925.367 638.514 928.579 639.818C929.891 640.352 933.885 641.976 933.911 645.236C933.94 648.962 928.845 651.44 923.624 653.657C917.331 656.336 910.516 659.236 903.505 661.201C903.077 661.322 902.113 661.486 900.943 661.678C899.903 661.849 897.928 662.17 896.515 662.501ZM934.167 684.216C932.627 684.216 931.127 684.076 929.679 683.794C924.723 682.833 920.512 680.341 916.437 677.929C913.949 676.457 911.6 675.068 909.089 673.996C907.983 673.524 906.96 673.134 905.979 672.761C903.812 671.937 901.765 671.158 899.392 669.732C898.261 669.052 897.341 668.168 896.453 667.313C896.125 666.997 895.8 666.685 895.472 666.393C895.344 666.281 895.129 666.142 894.887 665.977C893.451 664.993 891.049 663.348 891.932 661.014C892.528 659.444 894.355 658.922 900.332 657.945C901.315 657.785 902.124 657.66 902.483 657.56C909.259 655.658 915.955 652.81 921.861 650.296C929.361 647.11 930.132 645.721 930.128 645.265C930.128 645.257 929.901 644.44 927.155 643.324C922.651 641.493 919.413 636.818 918.905 631.413C918.899 631.342 918.324 624.281 921.315 622.178C922.344 621.454 923.597 621.38 924.847 621.965C926.733 622.85 928.588 623.81 930.443 624.77C934.205 626.718 937.76 628.56 941.597 629.806C945.171 630.968 948.904 631.568 952.693 631.589C953.687 631.608 954.644 631.541 955.552 631.492C958.821 631.309 962.201 631.125 965.6 633.85C969.661 637.109 972.649 640.494 974.732 644.2C976.068 646.576 980.191 654.766 977.123 660.392C976.899 660.804 976.636 661.2 976.335 661.57C970.619 668.654 961.043 675.101 947.063 681.276C942.653 683.224 938.269 684.216 934.167 684.216Z" fill="#3C3C3B"/>
<path d="M803.034 70.396H692.557H482.117C464.128 70.396 449.545 84.98 449.545 102.969V281.717C449.545 299.707 464.129 314.291 482.118 314.291H599.75L642.576 357.116L685.402 314.291H803.034C821.024 314.291 835.608 299.707 835.608 281.717V102.969C835.608 84.98 821.024 70.396 803.034 70.396Z" fill="#A7C553"/>
<path d="M482.118 71.6658C464.857 71.6658 450.814 85.7071 450.814 102.968V281.716C450.814 298.979 464.857 313.022 482.118 313.022H600.275L642.575 355.322L684.877 313.022H803.034C820.295 313.022 834.338 298.979 834.338 281.718V102.968C834.338 85.7071 820.295 71.6658 803.034 71.6658H482.118ZM642.575 358.911L599.225 315.56H482.118C463.458 315.56 448.275 300.378 448.275 281.716V102.968C448.275 84.3098 463.458 69.1271 482.118 69.1271H803.034C821.695 69.1271 836.877 84.3098 836.877 102.968V281.718C836.877 300.378 821.695 315.56 803.034 315.56H685.927L642.575 358.911Z" fill="#A7C553"/>
<path d="M806.916 274.216H478.234C477.247 274.216 476.448 273.418 476.448 272.43C476.448 271.443 477.247 270.644 478.234 270.644H806.916C807.903 270.644 808.702 271.443 808.702 272.43C808.702 273.418 807.903 274.216 806.916 274.216Z" fill="white"/>
<path d="M775.669 241.187C775.669 250.233 768.335 257.567 759.289 257.567C750.242 257.567 742.907 250.233 742.907 241.187C742.907 232.14 759.289 207.897 759.289 207.897C759.289 207.897 775.669 232.14 775.669 241.187Z" fill="#006D68"/>
<path d="M759.288 264.283C758.479 264.283 757.824 263.627 757.824 262.817V226.219C757.824 225.411 758.479 224.755 759.288 224.755C760.098 224.755 760.754 225.411 760.754 226.219V262.817C760.754 263.627 760.098 264.283 759.288 264.283Z" fill="white"/>
<path d="M655.08 271.373H630.072C630.072 271.373 630.082 270.781 630.103 270.488C630.556 263.996 635.968 258.869 642.576 258.869C649.227 258.869 654.666 264.063 655.058 270.615C655.072 270.865 655.08 271.373 655.08 271.373Z" fill="white"/>
<path d="M478.575 276.005C477.636 276.005 476.716 275.623 476.049 274.956C475.385 274.293 475.004 273.372 475.004 272.433C475.004 271.491 475.385 270.571 476.049 269.904C477.383 268.569 479.767 268.569 481.101 269.904C481.768 270.571 482.149 271.491 482.149 272.433C482.149 273.368 481.768 274.288 481.101 274.956C480.433 275.623 479.513 276.005 478.575 276.005Z" fill="#3C3C3B"/>
<path d="M651.125 112.225C649.159 112.122 647.644 110.442 647.749 108.471C647.852 106.501 649.533 104.985 651.503 105.091C653.473 105.194 654.985 106.875 654.883 108.849C654.785 110.753 653.207 112.229 651.316 112.229C651.255 112.229 651.192 112.229 651.125 112.225ZM629.997 108.867C629.891 106.897 631.401 105.211 633.372 105.105V105.109C635.347 105.002 637.028 106.51 637.135 108.481C637.236 110.45 635.729 112.135 633.759 112.242C633.693 112.247 633.625 112.247 633.564 112.247C631.677 112.247 630.103 110.771 629.997 108.867ZM668.393 114.07L668.389 114.066C666.447 113.75 665.12 111.918 665.436 109.974C665.752 108.022 667.584 106.697 669.536 107.013H669.532C671.48 107.329 672.805 109.165 672.489 111.113C672.205 112.865 670.684 114.115 668.963 114.115C668.776 114.115 668.585 114.102 668.393 114.07ZM612.399 111.162C612.079 109.214 613.4 107.377 615.348 107.057H615.343C617.296 106.738 619.132 108.058 619.448 110.01C619.768 111.953 618.447 113.79 616.499 114.11C616.304 114.141 616.108 114.159 615.921 114.159C614.196 114.159 612.684 112.914 612.399 111.162ZM685.351 117.77C683.452 117.245 682.336 115.275 682.86 113.373C683.38 111.474 685.351 110.357 687.255 110.882C689.153 111.406 690.269 113.373 689.745 115.275C689.308 116.858 687.872 117.899 686.303 117.899C685.992 117.899 685.671 117.855 685.351 117.77ZM595.149 115.351C594.619 113.453 595.731 111.482 597.635 110.954C599.533 110.423 601.504 111.535 602.033 113.438C602.563 115.338 601.445 117.309 599.547 117.837C599.227 117.926 598.907 117.97 598.587 117.97C597.021 117.97 595.584 116.934 595.149 115.351ZM701.813 123.294L701.819 123.298C699.983 122.565 699.084 120.487 699.817 118.655C700.547 116.818 702.624 115.925 704.456 116.654C706.288 117.383 707.181 119.461 706.452 121.297C705.896 122.694 704.553 123.547 703.135 123.547C702.695 123.547 702.245 123.463 701.813 123.294ZM578.453 121.395C577.72 119.562 578.615 117.486 580.447 116.753C582.275 116.018 584.356 116.911 585.089 118.745C585.823 120.581 584.929 122.658 583.096 123.387C582.661 123.561 582.216 123.646 581.776 123.646C580.357 123.646 579.015 122.795 578.453 121.395ZM717.579 130.582C715.836 129.657 715.168 127.497 716.093 125.749C717.019 124.005 719.18 123.343 720.924 124.263C722.671 125.189 723.335 127.35 722.409 129.097C721.769 130.306 720.528 130.995 719.247 130.995C718.681 130.995 718.113 130.862 717.579 130.582ZM562.524 129.218C561.599 127.47 562.263 125.307 564 124.383C565.744 123.459 567.911 124.117 568.835 125.863C569.759 127.603 569.101 129.765 567.359 130.694C566.824 130.978 566.251 131.113 565.687 131.113C564.405 131.113 563.169 130.423 562.524 129.218ZM732.46 139.53C730.827 138.423 730.4 136.199 731.508 134.567C732.611 132.935 734.835 132.505 736.471 133.615C738.103 134.719 738.531 136.942 737.423 138.574C736.729 139.593 735.604 140.145 734.456 140.145C733.772 140.145 733.073 139.943 732.46 139.53ZM547.533 138.713C546.425 137.081 546.852 134.861 548.48 133.75C550.112 132.642 552.336 133.065 553.443 134.696C554.551 136.328 554.128 138.551 552.496 139.659C551.883 140.076 551.184 140.278 550.491 140.278C549.348 140.278 548.227 139.731 547.533 138.713ZM746.295 150.034H746.291C744.783 148.754 744.6 146.499 745.876 145.001C747.153 143.493 749.408 143.31 750.911 144.587C752.419 145.858 752.6 148.114 751.324 149.617C750.617 150.453 749.608 150.879 748.593 150.879C747.78 150.879 746.963 150.605 746.295 150.034ZM533.649 149.777C532.372 148.273 532.555 146.014 534.059 144.738C535.561 143.461 537.812 143.639 539.092 145.147C540.373 146.646 540.191 148.901 538.688 150.181C538.016 150.755 537.192 151.035 536.375 151.035C535.365 151.035 534.36 150.605 533.649 149.777ZM758.907 161.962H758.912C757.551 160.53 757.609 158.271 759.04 156.915C760.472 155.553 762.731 155.607 764.093 157.043C765.453 158.47 765.392 160.73 763.964 162.09C763.269 162.75 762.385 163.074 761.5 163.074C760.556 163.074 759.609 162.701 758.907 161.962ZM521.037 162.265C519.6 160.909 519.541 158.645 520.899 157.213C522.255 155.781 524.519 155.718 525.951 157.078C527.383 158.43 527.445 160.69 526.084 162.126C525.381 162.865 524.439 163.242 523.492 163.242C522.607 163.242 521.727 162.918 521.037 162.265ZM770.176 175.174H770.172C768.976 173.609 769.277 171.363 770.843 170.167C772.413 168.971 774.655 169.274 775.855 170.842L775.851 170.838C777.047 172.409 776.749 174.65 775.184 175.846C774.535 176.339 773.769 176.579 773.013 176.579C771.937 176.579 770.879 176.095 770.176 175.174ZM509.829 176.038C508.26 174.841 507.957 172.599 509.153 171.029C510.345 169.461 512.587 169.158 514.156 170.35C515.727 171.546 516.033 173.787 514.837 175.357C514.135 176.278 513.068 176.766 511.991 176.766C511.239 176.766 510.479 176.526 509.829 176.038ZM779.951 189.522H779.947C778.924 187.831 779.465 185.634 781.156 184.617C782.845 183.593 785.039 184.135 786.061 185.82C787.08 187.511 786.541 189.709 784.852 190.731C784.273 191.077 783.637 191.247 783.007 191.247C781.801 191.247 780.623 190.633 779.951 189.522ZM500.179 190.943C498.485 189.921 497.943 187.724 498.96 186.034V186.038C499.979 184.345 502.176 183.802 503.865 184.82C505.556 185.839 506.099 188.031 505.08 189.726C504.409 190.838 503.225 191.455 502.016 191.455C501.389 191.455 500.753 191.287 500.179 190.943ZM788.112 204.833C787.28 203.046 788.053 200.919 789.845 200.087C791.633 199.257 793.76 200.034 794.591 201.822C795.419 203.61 794.649 205.735 792.856 206.567C792.372 206.794 791.856 206.901 791.353 206.901C790.007 206.901 788.716 206.135 788.112 204.833ZM492.188 206.799C490.4 205.971 489.623 203.846 490.453 202.058C491.28 200.266 493.401 199.487 495.195 200.319C496.987 201.146 497.764 203.271 496.937 205.063H496.932C496.328 206.367 495.037 207.133 493.691 207.133C493.189 207.133 492.677 207.025 492.188 206.799ZM794.568 220.954V220.948C793.933 219.078 794.933 217.054 796.805 216.422C798.673 215.791 800.701 216.791 801.337 218.659C801.969 220.527 800.969 222.555 799.096 223.19C798.719 223.319 798.332 223.382 797.952 223.382C796.463 223.382 795.071 222.443 794.568 220.954ZM485.98 223.439C484.103 222.807 483.097 220.784 483.733 218.916L483.729 218.912C484.361 217.04 486.384 216.039 488.261 216.667C490.129 217.298 491.133 219.322 490.503 221.194H490.497C490 222.683 488.608 223.626 487.119 223.626C486.74 223.626 486.353 223.563 485.98 223.439ZM799.229 237.67C798.803 235.74 800.016 233.836 801.947 233.41C803.872 232.987 805.78 234.206 806.208 236.127C806.629 238.053 805.416 239.966 803.489 240.389C803.227 240.446 802.965 240.471 802.712 240.471C801.071 240.471 799.599 239.334 799.229 237.67ZM481.613 240.659C479.683 240.236 478.46 238.333 478.887 236.403C479.309 234.478 481.212 233.255 483.139 233.682C485.068 234.099 486.287 236.007 485.864 237.928V237.932C485.5 239.606 484.019 240.743 482.377 240.743C482.124 240.743 481.865 240.716 481.613 240.659ZM802.049 254.8C801.831 252.839 803.249 251.074 805.211 250.86C807.172 250.647 808.932 252.062 809.147 254.023C809.365 255.988 807.945 257.748 805.985 257.967C805.856 257.98 805.727 257.99 805.597 257.99C803.797 257.99 802.244 256.632 802.049 254.8ZM479.14 258.239C477.179 258.028 475.76 256.268 475.973 254.303C476.181 252.342 477.943 250.923 479.905 251.136C481.865 251.34 483.289 253.102 483.075 255.069C482.88 256.901 481.328 258.26 479.523 258.26C479.397 258.26 479.268 258.251 479.14 258.239Z" fill="#3C3C3B"/>
<path d="M806.577 276.005C805.638 276.005 804.717 275.623 804.05 274.956C803.384 274.288 803.001 273.368 803.001 272.433C803.001 271.491 803.384 270.571 804.05 269.904C805.381 268.573 807.764 268.569 809.102 269.904C809.77 270.571 810.152 271.491 810.152 272.433C810.152 273.368 809.77 274.288 809.102 274.956C808.436 275.623 807.516 276.005 806.577 276.005Z" fill="#3C3C3B"/>
<path d="M714.416 274.216C713.429 274.216 712.63 273.418 712.63 272.43C712.63 233.803 681.204 202.376 642.576 202.376C603.949 202.376 572.522 233.803 572.522 272.43C572.522 273.418 571.722 274.216 570.736 274.216C569.749 274.216 568.95 273.418 568.95 272.43C568.95 231.832 601.978 198.804 642.576 198.804C683.173 198.804 716.202 231.832 716.202 272.43C716.202 273.418 715.402 274.216 714.416 274.216Z" fill="#006D68"/>
<path d="M642.576 200.881C641.589 200.881 640.789 200.083 640.789 199.096V185.605C640.789 184.619 641.589 183.819 642.576 183.819C643.562 183.819 644.362 184.619 644.362 185.605V199.096C644.362 200.083 643.562 200.881 642.576 200.881Z" fill="#006D68"/>
<path d="M643.372 271.198C643.103 271.198 642.83 271.136 642.574 271.007C641.691 270.564 641.335 269.492 641.776 268.611L698.243 155.999C698.686 155.116 699.763 154.762 700.64 155.202C701.523 155.646 701.879 156.718 701.438 157.599L644.971 270.211C644.656 270.836 644.027 271.198 643.372 271.198Z" fill="white"/>
<path d="M713.427 169.443L711.334 133.883L681.583 153.474L713.427 169.443Z" fill="white"/>
<path d="M652.808 107.032L642.576 149.904L632.344 107.032H652.808Z" fill="#3C3C3B"/>
<path d="M512.009 261.489H535.021L546.525 241.561L535.021 221.634H512.009L500.505 241.561L512.009 261.489ZM535.788 264.146H511.242C510.768 264.146 510.329 263.893 510.092 263.482L497.82 242.226C497.582 241.814 497.582 241.309 497.82 240.897L510.092 219.641C510.329 219.23 510.768 218.976 511.242 218.976H535.788C536.262 218.976 536.701 219.23 536.938 219.641L549.21 240.897C549.448 241.309 549.448 241.814 549.21 242.226L536.938 263.482C536.701 263.893 536.262 264.146 535.788 264.146Z" fill="#3C3C3B"/>
<path d="M530.418 229.604H516.612L509.709 241.562L516.612 253.518H530.418L537.321 241.562L530.418 229.604Z" fill="#3C3C3B"/>
</g>
</g>
<defs>
<clipPath id="clip0_131_8774">
<rect width="1200" height="1200" fill="white"/>
</clipPath>
</defs>
</svg>
