<svg width="148" height="52" viewBox="0 0 148 52" fill="none" xmlns="http://www.w3.org/2000/svg">
<path d="M61.0496 10.1426H63.197V21.9037H61.0496V10.1426Z" fill="#3C3C3C"/>
<path d="M77.3037 14.3711C77.7662 14.9327 77.9975 15.7586 77.9975 16.8819V21.8704H75.9162V16.981C75.9162 16.3533 75.8171 15.8908 75.5858 15.6265C75.3876 15.3291 75.0242 15.197 74.5617 15.197C74 15.197 73.5706 15.3952 73.2732 15.7586C72.9759 16.122 72.8107 16.6506 72.8107 17.3444V21.9035H70.7294V16.981C70.7294 16.3533 70.6303 15.8908 70.4321 15.6265C70.2338 15.3291 69.8704 15.197 69.4079 15.197C68.8793 15.197 68.4498 15.3952 68.1195 15.7586C67.8221 16.122 67.657 16.6506 67.657 17.3444V21.9035H65.5756V13.7764H67.6239V14.9327C67.8552 14.5032 68.2186 14.1398 68.6481 13.9085C69.0775 13.6773 69.5731 13.5782 70.1347 13.5782C71.3571 13.5782 72.183 14.0737 72.5794 15.0979C72.8437 14.6354 73.2071 14.2389 73.6697 13.9746C74.1322 13.7103 74.6938 13.5782 75.2554 13.5782C76.1474 13.5451 76.8412 13.8425 77.3037 14.3711Z" fill="#3C3C3C"/>
<path d="M86.6531 14.1069C87.2148 14.4703 87.6443 14.9658 87.9416 15.6266C88.2389 16.2873 88.4041 17.0141 88.4041 17.8731C88.4041 18.732 88.2389 19.4588 87.9416 20.0865C87.6443 20.7142 87.2148 21.2098 86.6531 21.5402C86.1245 21.8705 85.4638 22.0687 84.77 22.0687C84.1754 22.0687 83.6798 21.9366 83.2173 21.7053C82.7548 21.4741 82.4244 21.1107 82.1601 20.6812V24.9429H80.1118V13.7765H82.1601V14.9989C82.3914 14.5363 82.7548 14.206 83.2173 13.9417C83.6798 13.6774 84.2084 13.5783 84.8031 13.5783C85.4969 13.5452 86.1245 13.7435 86.6531 14.1069ZM85.7611 19.7562C86.1246 19.2936 86.3228 18.6659 86.3228 17.84C86.3228 16.9811 86.1246 16.3534 85.7611 15.8578C85.3977 15.3953 84.8692 15.164 84.2415 15.164C83.5807 15.164 83.0521 15.3953 82.6887 15.8578C82.3253 16.3203 82.1601 16.948 82.1601 17.807C82.1601 18.6329 82.3253 19.2936 82.6887 19.7562C83.0521 20.2187 83.5807 20.4499 84.2415 20.4499C84.9022 20.4169 85.3977 20.2187 85.7611 19.7562Z" fill="#3C3C3C"/>
<path d="M96.1678 14.4041C96.7294 14.9657 96.9937 15.8247 96.9937 16.981V21.9365H95.0115V20.6811C94.8132 21.1106 94.5159 21.4409 94.1195 21.7052C93.723 21.9365 93.2275 22.0686 92.6989 22.0686C92.1703 22.0686 91.6747 21.9695 91.2122 21.7383C90.7827 21.507 90.4193 21.2097 90.155 20.8132C89.8907 20.4168 89.7586 19.9873 89.7586 19.5248C89.7586 18.9301 89.9238 18.4676 90.2211 18.1042C90.5185 17.7738 91.014 17.5096 91.7078 17.3444C92.4016 17.1792 93.3596 17.1131 94.5489 17.1131H94.9784V16.7167C94.9784 16.155 94.8463 15.7586 94.615 15.5273C94.3838 15.2961 93.9873 15.1639 93.4257 15.1639C92.9962 15.1639 92.5337 15.23 92.0712 15.3952C91.6087 15.5604 91.1461 15.7586 90.6836 16.0229L90.089 14.6023C90.5515 14.305 91.0801 14.0737 91.7408 13.8755C92.4016 13.6773 92.9962 13.5782 93.5909 13.5782C94.7802 13.5451 95.6061 13.8425 96.1678 14.4041ZM94.4829 19.9873C94.8463 19.6239 95.0115 19.1284 95.0115 18.5337V18.1703H94.7141C93.9543 18.1703 93.3927 18.2033 92.9962 18.2694C92.5998 18.3355 92.3024 18.4676 92.1042 18.6328C91.939 18.798 91.8399 19.0292 91.8399 19.3266C91.8399 19.69 91.9721 19.9873 92.2033 20.2186C92.4346 20.4498 92.765 20.5489 93.1284 20.5489C93.69 20.5489 94.1525 20.3507 94.4829 19.9873Z" fill="#3C3C3C"/>
<path d="M100.628 21.54C100 21.2096 99.5045 20.7141 99.1741 20.0864C98.8437 19.4587 98.6786 18.6988 98.6786 17.8729C98.6786 17.014 98.8437 16.2871 99.2071 15.6264C99.5705 14.9657 100.066 14.4701 100.694 14.1067C101.355 13.7433 102.081 13.5781 102.94 13.5781C103.502 13.5781 104.097 13.6772 104.625 13.8424C105.187 14.0406 105.616 14.2719 105.947 14.5692L105.352 16.0228C105.022 15.7586 104.658 15.5273 104.262 15.3952C103.865 15.263 103.502 15.1639 103.105 15.1639C102.379 15.1639 101.817 15.3952 101.421 15.8246C101.024 16.2871 100.826 16.9148 100.826 17.7738C100.826 18.5997 101.024 19.2605 101.421 19.6899C101.817 20.1525 102.379 20.3507 103.105 20.3507C103.469 20.3507 103.865 20.2846 104.262 20.1194C104.658 19.9873 105.022 19.756 105.352 19.4917L105.947 20.9453C105.583 21.2757 105.121 21.507 104.592 21.7052C104.031 21.9034 103.469 21.9695 102.841 21.9695C101.982 22.0356 101.255 21.8704 100.628 21.54Z" fill="#3C3C3C"/>
<path d="M112.257 20.4167L112.158 21.9694C111.827 22.0024 111.53 22.0355 111.233 22.0355C110.076 22.0355 109.25 21.7712 108.689 21.2426C108.16 20.714 107.863 19.9211 107.863 18.897V15.329H106.31V13.7763H107.863V11.3315H109.944V13.7763H112.092V15.329H109.944V18.8639C109.944 19.9542 110.44 20.4827 111.464 20.4827C111.728 20.4827 111.992 20.4497 112.257 20.4167Z" fill="#3C3C3C"/>
<path d="M61.0496 29.9316H68.7472V31.6496H63.1639V34.8541H68.4168V36.572H63.1639V41.6928H61.0496V29.9316Z" fill="#3C3C3C"/>
<path d="M75.4867 35.0854L74.2643 35.2176C72.8768 35.3497 72.183 36.0765 72.183 37.3319V41.7258H70.1017V33.5657H72.0839V34.9863C72.5134 33.9952 73.3723 33.4666 74.6938 33.4005L75.3215 33.3345L75.4867 35.0854Z" fill="#3C3C3C"/>
<path d="M82.5235 34.1604C83.0852 34.722 83.3495 35.581 83.3495 36.7373V41.6928H81.3673V40.4374C81.169 40.8669 80.8717 41.1972 80.4753 41.4615C80.0788 41.6928 79.5833 41.8249 79.0547 41.8249C78.5261 41.8249 78.0305 41.7258 77.568 41.4946C77.1385 41.2633 76.7751 40.966 76.5108 40.5695C76.2465 40.1731 76.1144 39.7436 76.1144 39.2811C76.1144 38.6864 76.2796 38.2239 76.5769 37.8605C76.8742 37.5302 77.3698 37.2659 78.0636 37.1007C78.7573 36.9355 79.7154 36.8694 80.9047 36.8694H81.3342V36.473C81.3342 35.9113 81.2021 35.5149 80.9708 35.2836C80.7396 35.0524 80.3431 34.9202 79.7815 34.9202C79.352 34.9202 78.8895 34.9863 78.427 35.1515C77.9645 35.3167 77.5019 35.5149 77.0394 35.7792L76.4448 34.3586C76.9073 34.0613 77.4359 33.83 78.0966 33.6318C78.7573 33.4336 79.352 33.3345 79.9467 33.3345C81.136 33.3345 81.9619 33.6318 82.5235 34.1604ZM80.8387 39.7767C81.2021 39.4133 81.3673 38.9177 81.3673 38.323V37.9596H81.0699C80.3101 37.9596 79.7485 37.9927 79.352 38.0587C78.9556 38.1248 78.6582 38.257 78.46 38.4221C78.2948 38.5873 78.1957 38.8186 78.1957 39.1159C78.1957 39.4793 78.3279 39.7767 78.5591 40.0079C78.7904 40.2392 79.1208 40.3383 79.4842 40.3383C80.0458 40.3383 80.5083 40.1401 80.8387 39.7767Z" fill="#3C3C3C"/>
<path d="M97.2249 34.1602C97.6875 34.7219 97.9187 35.5478 97.9187 36.671V41.6596H95.8374V36.7371C95.8374 36.1094 95.7383 35.6469 95.507 35.3826C95.3088 35.0853 94.9454 34.9531 94.4829 34.9531C93.9213 34.9531 93.4918 35.1513 93.1944 35.5147C92.8971 35.8781 92.7319 36.4067 92.7319 37.1005V41.6596H90.6506V36.7371C90.6506 36.1094 90.5515 35.6469 90.3533 35.3826C90.1551 35.0853 89.7916 34.9531 89.3291 34.9531C88.8005 34.9531 88.3711 35.1513 88.0407 35.5147C87.7434 35.8781 87.5782 36.4067 87.5782 37.1005V41.6596H85.4969V33.4995H87.5451V34.6558C87.7764 34.2263 88.1398 33.8629 88.5693 33.6316C88.9988 33.4004 89.4943 33.3013 90.0559 33.3013C91.2783 33.3013 92.1042 33.7968 92.5007 34.821C92.765 34.3585 93.1284 33.962 93.5909 33.6977C94.0534 33.4334 94.615 33.3013 95.1767 33.3013C96.1017 33.3343 96.7955 33.6316 97.2249 34.1602Z" fill="#3C3C3C"/>
<path d="M107.202 37.9925H101.652C101.718 38.7524 101.949 39.314 102.346 39.6774C102.742 40.0408 103.304 40.239 103.997 40.239C104.889 40.239 105.715 39.9417 106.475 39.3801L107.07 40.8006C106.707 41.098 106.211 41.3623 105.649 41.5605C105.088 41.7587 104.493 41.8578 103.931 41.8578C102.61 41.8578 101.553 41.4944 100.76 40.7346C100 39.9747 99.6036 38.9506 99.6036 37.6291C99.6036 36.8032 99.7688 36.0433 100.099 35.4156C100.43 34.7549 100.892 34.2593 101.52 33.929C102.114 33.5656 102.808 33.4004 103.568 33.4004C104.691 33.4004 105.583 33.7638 106.244 34.4906C106.905 35.2174 107.235 36.2085 107.235 37.4639V37.9925H107.202ZM102.28 35.3496C101.949 35.713 101.718 36.2085 101.652 36.8693H105.418C105.385 36.1755 105.22 35.6799 104.923 35.3165C104.625 34.9531 104.163 34.7879 103.634 34.7879C103.039 34.821 102.61 34.9862 102.28 35.3496Z" fill="#3C3C3C"/>
<path d="M121.804 33.5322L118.6 41.6923H116.783L114.767 36.4395L112.818 41.6923H111.001L107.797 33.5322H109.944L112.025 39.2146L114.107 33.5322H115.593L117.675 39.2476L119.756 33.5322H121.804Z" fill="#3C3C3C"/>
<path d="M124.447 41.2962C123.82 40.9658 123.324 40.4703 122.994 39.8095C122.663 39.1488 122.465 38.422 122.465 37.563C122.465 36.7041 122.63 35.9442 122.994 35.3165C123.324 34.6888 123.82 34.1933 124.447 33.8299C125.075 33.4995 125.802 33.3013 126.628 33.3013C127.454 33.3013 128.18 33.4665 128.808 33.8299C129.436 34.1602 129.931 34.6558 130.262 35.3165C130.592 35.9442 130.757 36.7041 130.757 37.563C130.757 38.422 130.592 39.1818 130.262 39.8095C129.931 40.4703 129.436 40.9658 128.808 41.2962C128.18 41.6266 127.454 41.8248 126.628 41.8248C125.802 41.8248 125.075 41.6596 124.447 41.2962ZM128.147 39.5452C128.511 39.1158 128.676 38.455 128.676 37.563C128.676 36.7041 128.511 36.0433 128.147 35.6138C127.784 35.1513 127.288 34.9531 126.628 34.9531C125.967 34.9531 125.438 35.1844 125.075 35.6138C124.712 36.0764 124.546 36.7041 124.546 37.563C124.546 38.422 124.712 39.0827 125.075 39.5452C125.438 39.9747 125.934 40.206 126.595 40.206C127.288 40.206 127.817 39.9747 128.147 39.5452Z" fill="#3C3C3C"/>
<path d="M137.86 35.0854L136.638 35.2176C135.25 35.3497 134.557 36.0765 134.557 37.3319V41.7258H132.475V33.5657H134.457V34.9863C134.887 33.9952 135.746 33.4666 137.067 33.4005L137.695 33.3345L137.86 35.0854Z" fill="#3C3C3C"/>
<path d="M144.468 41.6928L140.966 37.9596V41.6928H138.884V29.9316H140.966V37.1006L144.236 33.5327H146.78L143.113 37.431L147.045 41.6597H144.468V41.6928Z" fill="#3C3C3C"/>
<path d="M36.6684 7.96188C36.6684 7.96188 31.6798 15.9238 25.5019 15.9238C19.324 15.9238 14.3355 7.96188 14.3355 7.96188C14.3355 7.96188 19.324 0 25.5019 0C31.6798 0 36.6684 7.96188 36.6684 7.96188Z" fill="#006D68"/>
<path d="M25.5019 10.7038C27.2718 10.7038 28.7065 9.26909 28.7065 7.49925C28.7065 5.72941 27.2718 4.29468 25.5019 4.29468C23.7321 4.29468 22.2974 5.72941 22.2974 7.49925C22.2974 9.26909 23.7321 10.7038 25.5019 10.7038Z" fill="#ACCA53"/>
<path d="M17.4079 20.3507C15.9873 19.3927 14.3025 18.9632 12.5845 19.1284C10.5363 19.3266 8.75226 20.3507 7.49686 21.9695C5.25036 24.8768 5.54769 29.0394 8.1576 31.6493C8.25671 31.7484 8.32278 31.8145 8.42189 31.9136C9.84248 33.169 11.6595 33.7967 13.5426 33.6646C13.906 33.6315 14.1703 33.8958 14.2033 34.2262C14.2033 34.3914 14.1703 34.5566 14.0382 34.6887C13.939 34.8209 13.7739 34.8869 13.6087 34.8869C13.4105 34.8869 13.2122 34.92 13.0471 34.92C11.0318 34.92 9.08263 34.1932 7.59597 32.8387C7.49686 32.7395 7.39775 32.6404 7.29864 32.5413C4.22621 29.5019 3.89584 24.6455 6.53879 21.2427C7.99241 19.3266 10.1068 18.1703 12.4854 17.939C13.3774 17.8399 14.2694 17.906 15.1284 18.1042L7.99241 10.9683C-1.39005 20.3507 -1.39005 35.5807 7.99241 44.9632L24.9734 27.9822L17.4079 20.3507ZM13.5756 30.1627C11.5274 30.1627 9.84248 28.4778 9.84248 26.4295C9.84248 24.3812 11.4943 22.7294 13.5756 22.7294C15.657 22.7294 17.3088 24.4143 17.3088 26.4625C17.3088 28.5108 15.6239 30.1627 13.5756 30.1627Z" fill="#3C3C3C"/>
<path d="M41.9873 10.9683C41.9873 10.9683 37.9899 15.0318 34.8183 18.2364C35.3469 18.1042 35.9085 18.0051 36.4702 17.9721C38.6836 17.8399 40.798 18.5667 42.4498 20.0534C42.549 20.1525 42.6481 20.2516 42.7472 20.3507C45.8196 23.3901 46.15 28.2465 43.507 31.6493C41.8882 33.7637 39.3444 35.0191 36.7014 35.0191C36.6023 35.0191 36.5032 35.0191 36.4371 35.0191C36.272 35.0191 36.1068 34.953 36.0077 34.8209C35.9085 34.6887 35.8425 34.5566 35.8425 34.3914C35.8425 34.2262 35.9086 34.061 36.0407 33.9619C36.1728 33.8628 36.305 33.7967 36.4702 33.7967C38.8158 33.8628 41.0953 32.8056 42.549 30.9225C44.7955 28.0153 44.4981 23.8526 41.8882 21.2427C41.7891 21.1436 41.723 21.0775 41.6239 20.9784C40.2364 19.723 38.4524 19.0953 36.5693 19.2275C34.9505 19.3266 33.3317 19.9212 32.1093 20.9784C31.9111 21.1436 31.2834 21.7383 31.0191 21.9695C30.92 22.0686 30.8209 22.1678 30.7218 22.2669L8.02545 44.9632C17.4079 54.3456 32.6379 54.3456 42.0204 44.9632C51.4028 35.5807 51.3698 20.3507 41.9873 10.9683ZM32.737 27.0902C32.3075 24.5464 34.488 22.366 37.0318 22.7955C38.5845 23.0597 39.8399 24.2821 40.0712 25.8348C40.5007 28.3787 38.3202 30.5591 35.7764 30.1296C34.2567 29.8653 33.0013 28.6099 32.737 27.0902Z" fill="#006D68"/>
<path fill-rule="evenodd" clip-rule="evenodd" d="M29.3342 35.7788L25.0064 41.7254L20.6786 35.7788H29.3342Z" fill="#ACCA53"/>
</svg>
